<?xml version="1.0" encoding="utf-8"?>
<!-- Generator: Adobe Illustrator 21.0.2, SVG Export Plug-In . SVG Version: 6.00 Build 0)  -->
<!DOCTYPE svg PUBLIC "-//W3C//DTD SVG 1.1//EN" "http://www.w3.org/Graphics/SVG/1.1/DTD/svg11.dtd">
<svg version="1.1" id="Layer_1" xmlns="http://www.w3.org/2000/svg" xmlns:xlink="http://www.w3.org/1999/xlink" x="0px" y="0px"
	 viewBox="0 0 250 250" enable-background="new 0 0 250 250" xml:space="preserve">
<g>
	<g>
		<g>
			<path fill="#FDCB02" d="M219.8,65.5c-5-5.9-9-12.7-14.8-18c-11.6-10.4-22.8-21.2-37.7-27.3c-9-3.7-18.4-4.1-27.7-5.9
				c-5-1-9.9-1.4-14.7-1.5c-2.3,0-4.1,0.3-4.1,0.3c-7.6,1.4-15.5,1.4-23,3.9c-14.8,4.8-29.8,9.2-42.5,18.9
				c-7.7,5.9-12.7,13.9-18.9,21c-3.3,3.8-6.2,7.8-8.7,11.9c-1.2,2-1.8,3.7-1.8,3.7c-2.6,7.3-6.5,14.1-8.2,21.8
				c-3.2,15.3-6.9,30.4-4.8,46.3c1.3,9.6,5.7,18,8.8,26.9c1.7,4.8,3.7,9.3,6,13.5c1.2,2,2.3,3.4,2.3,3.4c5,5.9,9,12.7,14.8,18
				c11.6,10.4,22.8,21.2,37.7,27.3c9,3.7,18.4,4.1,27.7,5.9c5,1,9.9,1.4,14.7,1.5c2.3,0,4.1-0.3,4.1-0.3c7.6-1.4,15.5-1.4,23-3.9
				c14.8-4.8,29.8-9.2,42.5-18.9c7.7-5.9,12.7-13.9,18.9-21c3.1-3.6,5.8-7.3,8.2-11.1c-0.8-1.6-3.2-2.9-4.6-3.7
				c-11.9-6.6-23.1-14.2-35.3-20.2c-4-2-8.4-3.8-11.5-6.8c-6.7-6.4-14.8-9.9-22.9-13.6c-5-2.3-9.7-5-12.9-9.8
				c-1.1-1.7-1.4-2.4,0.3-4c4.6-4.5,9.2-8.8,14.9-11.9c12.5-6.9,24.5-14.7,37-21.7c8-4.4,15-10.6,24-13.3c3.9-1.2,9.3-4.2,11.9-7.3
				c-0.1-0.3-0.3-0.5-0.4-0.8C221,66.9,219.8,65.5,219.8,65.5z M67.6,131c-2.4,4.9-11.5,8.1-19,4.2c-3.7-1.9-6-11.7-3.9-15.4
				c3.5-6.1,12.3-8.8,18-5.6C68.5,117.5,70.4,125.2,67.6,131z M95.6,196.2c-3.5,2.2-13.1-0.7-15.3-4.3c-3.5-6.1-1.5-15.1,4.1-18.4
				c5.8-3.3,13.3-1.2,17,4.2C104.6,182.2,102.8,191.7,95.6,196.2z M91.1,78.3C85.6,78.7,78.3,72.5,78,64c-0.2-4.2,7.2-11,11.4-11
				c7,0,13.8,6.3,13.8,12.8C103.3,72.3,97.6,77.8,91.1,78.3z M158.9,171.7c5.5-0.4,12.8,5.9,13.1,14.4c0.2,4.2-7.2,11-11.4,11
				c-7,0-13.8-6.3-13.8-12.8C146.7,177.7,152.4,172.2,158.9,171.7z M165.5,76.5c-5.8,3.3-13.3,1.2-17-4.2c-3.1-4.5-1.3-14,5.9-18.5
				c3.5-2.2,13.1,0.7,15.3,4.3C173.1,64.2,171.1,73.2,165.5,76.5z"/>
			<path fill="#FC9105" d="M229.5,184.3c-2.9-1.1-4.9-1.5-7.9-2.4c0,0,0,0,0,0c-2.4,3.8-5.1,7.6-8.2,11.1
				c-6.2,7.1-11.2,15.1-18.9,21c-12.7,9.8-27.7,14.1-42.5,18.9c-7.5,2.4-15.3,2.4-23,3.9c0,0-1.8,0.3-4.1,0.3
				c-4.8-0.1-9.7-0.6-14.7-1.5c-9.3-1.8-18.7-2.1-27.7-5.9c-14.8-6.1-26.1-16.9-37.7-27.3c-5.9-5.3-9.8-12.1-14.8-18
				c0,0-1.1-1.4-2.3-3.4c-2.3-4.2-4.4-8.7-6-13.5c-3.1-8.9-7.5-17.3-8.8-26.9c-2.1-15.9,1.6-31,4.8-46.3c1.6-7.7,5.6-14.5,8.2-21.8
				c0,0,0.6-1.7,1.8-3.7c2.5-4.1,5.3-8.1,8.7-11.9c6.2-7.1,11.2-15.1,18.9-21C68.2,26.2,83.1,21.8,97.9,17c7.5-2.4,15.3-2.4,23-3.9
				c0,0,1.8-0.3,4.1-0.3c4.8,0.1,9.7,0.6,14.7,1.5c9.3,1.8,18.7,2.1,27.7,5.9c14.8,6.1,26.1,16.9,37.7,27.3
				c5.9,5.3,9.8,12.1,14.8,18c0,0,1.1,1.4,2.3,3.4c0.1,0.3,0.3,0.5,0.4,0.8c0,0,0,0,0,0c2.4-1.2,2.7-1.2,4.9-2.5
				c4.4-2.5,5.3-4.8,2-8.7l0,0c-4.5-5.4-8.7-10.9-12.3-16.9c-2.5-4-6-7-9.7-9.9c-7.8-6.1-16.7-10.1-25.1-15.1
				c-9.5-5.6-18.6-12.4-30.7-11.5c-1.6,0.1-3.3-0.6-4.8-1.1c-7.2-2.4-14.5-3.6-21.8-3.5c-2.4,0-5.4,0.8-5.4,0.8
				c-6.9,1.2-13.8,2-20.8,2.2c-4.7,0.1-9,1.7-13.4,3.5c-9.2,3.7-17.1,9.4-25.6,14.2c-9.6,5.4-20,9.9-25.3,20.8
				c-0.7,1.4-2.2,2.5-3.4,3.6c-5.7,5-10.3,10.8-14,17.1c-1.2,2.1-2,5.1-2,5.1c-2.4,6.6-5.1,13-8.5,19.1c-2.2,4.1-3,8.7-3.7,13.3
				c-1.4,9.8-0.4,19.5-0.5,29.3c-0.1,11-1.4,22.3,5.4,32.3c0.9,1.3,1.1,3.1,1.4,4.8c1.5,7.5,4.1,14.3,7.9,20.7
				c1.2,2.1,3.4,4.3,3.4,4.3c4.5,5.4,8.7,10.9,12.3,16.9c2.5,4,6,7,9.7,9.9c7.8,6.1,16.7,10.1,25.1,15.1
				c9.5,5.6,18.6,12.4,30.7,11.5c1.6-0.1,3.3,0.6,4.8,1.1c7.2,2.4,14.5,3.6,21.8,3.5c2.4,0,5.4-0.8,5.4-0.8c6.9-1.2,13.8-2,20.8-2.2
				c4.7-0.1,9-1.7,13.4-3.5c9.2-3.7,17.1-9.4,25.6-14.2c9.6-5.4,20-9.9,25.3-20.8c0.7-1.4,2.2-2.5,3.4-3.6
				c5.4-4.7,9.8-10.1,13.3-16.1C233.1,186.3,231.9,185.2,229.5,184.3z"/>
			<path fill="#FF0000" d="M160.6,197.1c4.2,0,11.6-6.9,11.4-11c-0.3-8.5-7.6-14.8-13.1-14.4c-6.5,0.5-12.2,6-12.1,12.6
				C146.8,190.8,153.6,197.1,160.6,197.1z"/>
			<path fill="#FF0000" d="M84.5,173.5c-5.6,3.3-7.7,12.3-4.1,18.4c2.1,3.6,11.7,6.6,15.3,4.3c7.2-4.5,9-14,5.9-18.5
				C97.9,172.3,90.3,170.2,84.5,173.5z"/>
			<path fill="#FF0000" d="M62.8,114.2c-5.6-3.2-14.5-0.5-18,5.6c-2.1,3.7,0.2,13.5,3.9,15.4c7.5,4,16.6,0.8,19-4.2
				C70.4,125.2,68.5,117.5,62.8,114.2z"/>
			<path fill="#FF0000" d="M89.4,52.9c-4.2,0-11.6,6.9-11.4,11c0.3,8.5,7.6,14.8,13.1,14.4c6.5-0.5,12.2-6,12.1-12.6
				C103.2,59.2,96.4,52.9,89.4,52.9z"/>
			<path fill="#FF0000" d="M154.4,53.8c-7.2,4.5-9,14-5.9,18.5c3.7,5.4,11.3,7.5,17,4.2c5.6-3.3,7.7-12.3,4.1-18.4
				C167.5,54.5,157.9,51.6,154.4,53.8z"/>
		</g>
	</g>
</g>
</svg>
