<?xml version="1.0" encoding="utf-8"?>
<!-- Generator: Adobe Illustrator 21.0.2, SVG Export Plug-In . SVG Version: 6.00 Build 0)  -->
<!DOCTYPE svg PUBLIC "-//W3C//DTD SVG 1.1//EN" "http://www.w3.org/Graphics/SVG/1.1/DTD/svg11.dtd">
<svg version="1.1" id="Layer_1" xmlns="http://www.w3.org/2000/svg" xmlns:xlink="http://www.w3.org/1999/xlink" x="0px" y="0px"
	 viewBox="0 0 250 250" enable-background="new 0 0 250 250" xml:space="preserve">
<g>
	<path fill="#FDCB02" d="M232.1,155.6c3.2-15.3,6.9-30.4,4.8-46.3c-1.3-9.6-5.7-18-8.8-26.9c-1.7-4.8-3.7-9.3-6-13.5
		c-0.6-1-1.1-1.8-1.6-2.4c0,0-0.1,0.1-0.1,0.1l0,0c-0.4,0.4-0.8,0.7-1.3,1c-7.3,4-16.1,7.4-23.1,11.9c-11.6,7.5-23,15.4-35.5,21.6
		c-8.3,4.1-17.3,3.6-24.7-2.4c-7.7-6.3-11.8-14-8.7-24.1c1.3-4.3,1.7-8.5,0.4-13c-3.4-11.7-3.2-23.3-1.5-35.9c0-0.1,0-0.2,0-0.3
		c0-0.1,0-0.1,0-0.2c0-0.1,0-0.2,0-0.2c0,0,0-1.6,0-4.2c-0.2-1-0.3-2-0.4-2.9c-0.2-1.4-0.4-3-0.5-5.1c-0.1,0-0.1,0-0.2,0
		c-2.3,0-4.1,0.3-4.1,0.3c-7.6,1.4-15.5,1.4-23,3.9c-14.8,4.8-29.8,9.2-42.5,18.9c-7.7,5.9-12.7,13.9-18.9,21
		c-3.3,3.8-6.2,7.8-8.7,11.9c-1.2,2-1.8,3.7-1.8,3.7c-2.6,7.3-6.5,14.1-8.2,21.8c-3.2,15.3-6.9,30.4-4.8,46.3
		c1.3,9.6,5.7,18,8.8,26.9c1.7,4.8,3.7,9.3,6,13.5c1.2,2,2.3,3.4,2.3,3.4c5,5.9,9,12.7,14.8,18c11.6,10.4,22.8,21.2,37.7,27.3
		c9,3.7,18.4,4.1,27.7,5.9c5,1,9.9,1.4,14.7,1.5c2.3,0,4.1-0.3,4.1-0.3c7.6-1.4,15.5-1.4,23-3.9c14.8-4.8,29.8-9.2,42.5-18.9
		c7.7-5.9,12.7-13.9,18.9-21c3.1-3.6,5.8-7.3,8.2-11.1c-0.8-1.6-3.2-2.9-4.6-3.7c-11.9-6.6-23.1-14.2-35.3-20.2
		c-4-2-8.4-3.8-11.5-6.8c-1-0.9-2-1.8-3-2.6c-0.2-0.4,0.1-0.4,1,0.2c12.4,7.2,6.4,3.2,19,10.1c8,4.4,17,7.1,24,13.4
		c3.1,2.7,8.4,5.6,12.4,6.2c0,0,0,0,0,0c0.3-0.7,0.5-1.1,0.5-1.1C226.5,170.1,230.4,163.3,232.1,155.6z M135.9,117.1
		c-1.8-0.2-5,3.2-7.1-0.1c-1.1-1.7-2.9-4.9-0.7-7.1c2-2,8.2,0.4,9.6,3.5C138.2,114.7,139.3,116.4,135.9,117.1z"/>
	<path fill="#FC9105" d="M242.2,88.1c-0.9-1.3-1.1-3.1-1.4-4.8c-1.5-7.5-4.1-14.3-7.9-20.7c-0.7-1.2-1.7-2.5-2.5-3.3
		c-0.8-0.4-1.7-0.4-2.6,0c-0.7,0.3-1.3,0.8-2,1.4c-2.1,2.1-4.1,3.5-5.1,5.6c0,0-0.1,0.1-0.1,0.1c0.4,0.6,1,1.4,1.6,2.4
		c2.3,4.2,4.4,8.7,6,13.5c3.1,8.9,7.5,17.3,8.8,26.9c2.1,15.9-1.6,31-4.8,46.3c-1.6,7.7-5.6,14.5-8.2,21.8c0,0-0.2,0.4-0.5,1.1
		c2.2,1.4,2.5,1.7,4.8,2.9c3.2,1.7,5.3,2,6.8,0.2c2.4-6.4,5-12.6,8.2-18.6c2.2-4.1,3-8.7,3.7-13.3c1.4-9.8,0.4-19.5,0.5-29.3
		C247.6,109.4,248.9,98.1,242.2,88.1z"/>
	<path fill="#FC9105" d="M194.6,214.1c-12.7,9.8-27.7,14.1-42.5,18.9c-7.5,2.4-15.3,2.4-23,3.9c0,0-1.8,0.3-4.1,0.3
		c-4.8-0.1-9.7-0.6-14.7-1.5c-9.3-1.8-18.7-2.1-27.7-5.9c-14.8-6.1-26.1-16.9-37.7-27.3c-5.9-5.3-9.8-12.1-14.8-18
		c0,0-1.1-1.4-2.3-3.4c-2.3-4.2-4.4-8.7-6-13.5c-3.1-8.9-7.5-17.3-8.8-26.9c-2.1-15.9,1.6-31,4.8-46.3c1.6-7.7,5.6-14.5,8.2-21.8
		c0,0,0.6-1.7,1.8-3.7c2.5-4.1,5.3-8.1,8.7-11.9c6.2-7.1,11.2-15.1,18.9-21C68.2,26.2,83.1,21.8,97.9,17c7.5-2.4,15.3-2.4,23-3.9
		c0,0,1.8-0.3,4.1-0.3c0.1,0,0.1,0,0.2,0c0,0,0,0,0,0l0,0c-0.2-1.9,0.2-2.3,0.3-3.9c0.2-2.4,0.1-4.2-0.3-5.5l0,0
		c-1.4-2.3-3.1-2.6-5.3-2.3c-0.1,0-0.2,0.1-0.2,0.1c-0.6,0.1-1.2,0.2-1.8,0.3c0,0-0.1,0-0.1,0l0,0c-6.2,1-12.5,1.7-18.8,1.9
		c-4.7,0.1-9,1.7-13.4,3.5c-9.2,3.7-17.1,9.4-25.6,14.2c-9.6,5.4-20,9.9-25.3,20.8c-0.7,1.4-2.2,2.5-3.4,3.6
		c-5.7,5-10.3,10.8-14,17.1c-1.2,2.1-2,5.1-2,5.1c-2.4,6.6-5.1,13-8.5,19.1c-2.2,4.1-3,8.7-3.7,13.3c-1.4,9.8-0.4,19.5-0.5,29.3
		c-0.1,11-1.4,22.3,5.4,32.3c0.9,1.3,1.1,3.1,1.4,4.8c1.5,7.4,4.1,14.3,7.9,20.7c1.2,2.1,3.4,4.3,3.4,4.3
		c4.5,5.4,8.7,10.9,12.3,16.9c2.5,4,6,7,9.7,9.9c7.8,6.1,16.7,10.1,25.1,15.1c9.5,5.6,18.6,12.4,30.7,11.5c1.6-0.1,3.3,0.6,4.8,1.1
		c7.2,2.4,14.5,3.6,21.8,3.5c2.4,0,5.4-0.8,5.4-0.8c6.9-1.2,13.8-2,20.8-2.2c4.7-0.1,9-1.7,13.4-3.5c9.2-3.7,17.1-9.4,25.6-14.2
		c9.6-5.4,20-9.9,25.3-20.8c0.7-1.4,2.2-2.5,3.4-3.6c2.2-1.9,4.2-4,6.1-6.1l0,0c2.7-3.1,5.2-6.4,7.3-10c0.9-2-0.3-3.2-2.7-4.1
		c-2.9-1.1-4.9-1.5-7.9-2.4c0,0,0,0,0,0c-2.4,3.8-5.1,7.6-8.2,11.1C207.3,200.1,202.3,208.2,194.6,214.1z"/>
	<path fill="#FF0000" d="M160.6,197.1c4.2,0,11.6-6.9,11.4-11c-0.3-8.5-7.6-14.8-13.1-14.4c-6.5,0.5-12.2,6-12.1,12.6
		C146.8,190.8,153.6,197.1,160.6,197.1z"/>
	<path fill="#FF0000" d="M80.4,191.9c2.1,3.6,11.7,6.6,15.3,4.3c7.2-4.5,9-14,5.9-18.5c-3.7-5.4-11.3-7.5-17-4.2
		C78.9,176.8,76.9,185.8,80.4,191.9z"/>
	<path fill="#FF0000" d="M44.8,119.8c-2.1,3.7,0.2,13.5,3.9,15.4c7.5,4,16.6,0.8,19-4.2c2.8-5.9,0.9-13.5-4.9-16.8
		C57.1,110.9,48.3,113.7,44.8,119.8z"/>
	<path fill="#FF0000" d="M89.4,52.9c-4.2,0-11.6,6.9-11.4,11c0.3,8.5,7.6,14.8,13.1,14.4c6.5-0.5,12.2-6,12.1-12.6
		C103.2,59.2,96.4,52.9,89.4,52.9z"/>
	<path fill="#FF0000" d="M204.6,126.9c1.9-3.9-1.2-12.8-5.1-14.7c-6.4-3.2-15.5-0.4-18.3,5.6c-2.7,5.8,0.1,13.3,6,16.2
		C192.8,136.6,201.6,133.1,204.6,126.9z"/>
</g>
</svg>
