<?xml version="1.0" encoding="utf-8"?>
<!-- Generator: Adobe Illustrator 21.0.2, SVG Export Plug-In . SVG Version: 6.00 Build 0)  -->
<!DOCTYPE svg PUBLIC "-//W3C//DTD SVG 1.1//EN" "http://www.w3.org/Graphics/SVG/1.1/DTD/svg11.dtd">
<svg version="1.1" xmlns="http://www.w3.org/2000/svg" xmlns:xlink="http://www.w3.org/1999/xlink" x="0px" y="0px"
	 viewBox="0 0 250 250" enable-background="new 0 0 250 250" xml:space="preserve">
<g id="Layer_1">
</g>
<g id="Layer_2">
</g>
<g id="Layer_3">
</g>
<g id="Layer_4">
	<g>
		<path fill="#FDCB02" d="M223.9,177.4c2.6-7.3,6.5-14.1,8.2-21.8c3.2-15.3,6.9-30.4,4.8-46.3c-1.3-9.6-5.7-18-8.8-26.9
			c-1.7-4.8-3.7-9.3-6-13.5c-1.2-2-2.3-3.4-2.3-3.4c-5-5.9-9-12.7-14.8-18c-11.6-10.4-22.8-21.2-37.7-27.3c-9-3.7-18.4-4.1-27.7-5.9
			c-5-1-9.9-1.4-14.7-1.5c-2.3,0-4.1,0.3-4.1,0.3c-7.6,1.4-15.5,1.4-23,3.9c-14.8,4.8-29.8,9.2-42.5,18.9
			c-7.7,5.9-12.7,13.9-18.9,21c-3.3,3.8-6.2,7.8-8.7,11.9c-1.2,2-1.8,3.7-1.8,3.7c-2.6,7.3-6.5,14.1-8.2,21.8
			c-3.2,15.3-6.9,30.4-4.8,46.3c1.3,9.6,5.7,18,8.8,26.9c1.5,4.5,3.4,8.7,5.6,12.6c1.7,0.1,4.1-1.4,5.5-2.2
			c11.6-7,23.9-12.9,35.1-20.5c2-1.4,4.1-2.9,6.3-4.1c2.7-1.4,19.1-7.1,15-4.5c-12,7.8-10.8,8.1-22.6,16.2
			c-7.6,5.1-14,11.9-22.8,15.4c-3.8,1.5-8.3,4.6-10.6,7.9c0,0,0,0,0,0c3.7,4.8,7.1,9.9,11.7,14c11.6,10.4,22.8,21.2,37.7,27.3
			c9,3.7,18.4,4.1,27.7,5.9c5,1,9.9,1.4,14.7,1.5c2.3,0,4.1-0.3,4.1-0.3c1.6-0.3,3.2-0.5,4.8-0.7c0.8-4.7-1-9.9-0.5-14.4
			c0.7-6.6,0.7-13-0.2-19.6c-1-7.5-0.1-13.7,8.9-16.9c1.2-0.4,2.3-1.3,3.4-2c7.4-5.1,14.8-10.3,22.3-15.3
			c10.3-6.9,16.7-6.7,27.1,0.3c2,1.4,4.2,2.5,6.5,3.5c3.1,1.4,6.7,1.7,9.4,4c1.2,1,2.2,1.6,3.4,2.1c1.1,0.4,2.2,0.8,3.3,1.3
			c1.3,0.5,2.8,1.1,4.7,2.1c0-0.1,0.1-0.1,0.1-0.2C223.3,179.1,223.9,177.4,223.9,177.4z M128.5,141.9c-2,0.1-2.1-1-1.5-3
			c1.3-1.6-0.9-6,3.5-5.9c1.9,0.1,4.9-0.1,5.5,2.7C136.4,137.7,131.1,141.8,128.5,141.9z M161.1,159.4c-7.8,5.9-16.1,11.2-24.4,16.4
			c-3.3,2.1-6.5-0.1-6.7-4c-0.1-1.3,0-2.6,0-4.5c-0.7-6.5,3-11,8.5-14.4c3.9-2.4,7.7-5,12.4-5.8c2.6-0.4,5.2-0.5,7.8,0.4
			C164.6,149.9,166.1,155.6,161.1,159.4z"/>
		<path fill="#FC9105" d="M242.2,88.1c-0.9-1.3-1.1-3.1-1.4-4.8c-1.5-7.4-4.1-14.3-7.9-20.7c-1.2-2.1-3.4-4.3-3.4-4.3
			c-4.5-5.4-8.7-10.9-12.3-16.9c-2.5-4-6-7-9.7-9.9c-7.8-6.1-16.7-10.1-25.1-15.1c-9.5-5.6-18.6-12.4-30.7-11.5
			c-1.6,0.1-3.3-0.6-4.8-1.1c-7.2-2.4-14.5-3.6-21.8-3.5c-2.4,0-5.4,0.8-5.4,0.8c-6.9,1.2-13.8,2-20.8,2.2c-4.7,0.1-9,1.7-13.4,3.5
			c-9.2,3.7-17.1,9.4-25.6,14.2c-9.6,5.4-20,9.9-25.3,20.8c-0.7,1.4-2.2,2.5-3.4,3.6c-5.7,5-10.3,10.8-14,17.1c-1.2,2.1-2,5.1-2,5.1
			c-2.4,6.6-5.1,13-8.5,19.1c-2.2,4.1-3,8.7-3.7,13.3c-1.4,9.8-0.4,19.5-0.5,29.3c-0.1,11-1.4,22.3,5.4,32.3
			c0.9,1.3,1.1,3.1,1.4,4.8c0.6,2.8,1.3,5.6,2.2,8.3l0,0c1.3,3.9,3,7.7,5,11.3c1.3,1.7,2.9,1.3,4.9-0.3c2.4-2,3.8-3.5,6-5.6
			c0,0,0,0,0,0c-2.1-4-4-8.2-5.6-12.6c-3.1-8.9-7.5-17.3-8.8-26.9c-2.1-15.9,1.6-31,4.8-46.3c1.6-7.7,5.6-14.5,8.2-21.8
			c0,0,0.6-1.7,1.8-3.7c2.5-4.1,5.3-8.1,8.7-11.9c6.2-7.1,11.2-15.1,18.9-21C68.2,26.2,83.1,21.8,97.9,17c7.5-2.4,15.3-2.4,23-3.9
			c0,0,1.8-0.3,4.1-0.3c4.8,0.1,9.7,0.6,14.7,1.5c9.3,1.8,18.7,2.1,27.7,5.9c14.8,6.1,26.1,16.9,37.7,27.3c5.9,5.3,9.8,12.1,14.8,18
			c0,0,1.1,1.4,2.3,3.4c2.3,4.2,4.4,8.7,6,13.5c3.1,8.9,7.5,17.3,8.8,26.9c2.1,15.9-1.6,31-4.8,46.3c-1.6,7.7-5.6,14.5-8.2,21.8
			c0,0-0.6,1.7-1.8,3.7c0,0.1-0.1,0.1-0.1,0.2c0,0,0,0,0,0l0,0c1.8,0.8,1.9,1.3,3.2,2.2c2,1.4,3.6,2.2,4.9,2.5l0,0
			c2.7-0.1,3.8-1.4,4.7-3.5c0-0.1,0.1-0.2,0.1-0.2c0.2-0.6,0.4-1.2,0.7-1.7c0,0,0-0.1,0-0.1l0,0c2.2-5.9,4.7-11.7,7.8-17.3
			c2.2-4.1,3-8.7,3.7-13.3c1.4-9.8,0.4-19.5,0.5-29.3C247.6,109.4,248.9,98.1,242.2,88.1z"/>
		<path fill="#FC9105" d="M125,237.2c-4.8-0.1-9.7-0.6-14.7-1.5c-9.3-1.8-18.7-2.1-27.7-5.9c-14.8-6.1-26.1-16.9-37.7-27.3
			c-4.6-4.1-8-9.2-11.7-14c-2.2,1.4-3.1,1.8-5.3,3.3c-2.4,1.7-3.6,3.2-3.6,4.8c3,3.8,5.8,7.8,8.4,11.9c2.5,4,6,7,9.7,9.9
			c7.8,6.1,16.7,10.1,25.1,15.1c9.5,5.6,18.6,12.4,30.7,11.5c1.6-0.1,3.3,0.6,4.8,1.1c7.2,2.4,14.5,3.6,21.8,3.5
			c2.4,0,5.4-0.8,5.4-0.8c1.9-0.3,3.8-0.6,5.7-0.9c0,0,0,0,0,0c0.9-0.1,1-1.1,1-1.2c0-0.1,0-0.2,0-0.3c0-0.7-0.1-1.5-0.4-2.4
			c-0.9-2.8-1.3-5.3-2.7-7.1c0,0,0,0,0,0l-0.3-0.1c0-0.2,0.1-0.4,0.1-0.5c-1.6,0.2-3.2,0.4-4.8,0.7
			C129.1,236.9,127.3,237.2,125,237.2z"/>
		<path fill="#FF0000" d="M169.6,58.1c-2.1-3.6-11.7-6.6-15.3-4.3c-7.2,4.5-9,14-5.9,18.5c3.7,5.4,11.3,7.5,17,4.2
			C171.1,73.2,173.1,64.2,169.6,58.1z"/>
		<path fill="#FF0000" d="M205.2,130.2c2.1-3.7-0.2-13.5-3.9-15.4c-7.5-4-16.6-0.8-19,4.2c-2.8,5.9-0.9,13.5,4.9,16.8
			C192.9,139.1,201.7,136.3,205.2,130.2z"/>
		<path fill="#FF0000" d="M44.8,119.8c-2.1,3.7,0.2,13.5,3.9,15.4c7.5,4,16.6,0.8,19-4.2c2.8-5.9,0.9-13.5-4.9-16.8
			C57.1,110.9,48.3,113.7,44.8,119.8z"/>
		<path fill="#FF0000" d="M89.4,52.9c-4.2,0-11.6,6.9-11.4,11c0.3,8.5,7.6,14.8,13.1,14.4c6.5-0.5,12.2-6,12.1-12.6
			C103.2,59.2,96.4,52.9,89.4,52.9z"/>
		<path fill="#FF0000" d="M87.4,195.2c2.6,3.5,12,4.7,15.4,2.1c5.7-4.3,7.3-13.7,3.3-18.9c-4-5.1-11.9-6-17.2-2
			C84,180.3,83.2,189.7,87.4,195.2z"/>
	</g>
</g>
<g id="Layer_5">
</g>
</svg>
