<?xml version="1.0" encoding="utf-8"?>
<!-- Generator: Adobe Illustrator 21.0.2, SVG Export Plug-In . SVG Version: 6.00 Build 0)  -->
<!DOCTYPE svg PUBLIC "-//W3C//DTD SVG 1.1//EN" "http://www.w3.org/Graphics/SVG/1.1/DTD/svg11.dtd">
<svg version="1.1" xmlns="http://www.w3.org/2000/svg" xmlns:xlink="http://www.w3.org/1999/xlink" x="0px" y="0px"
	 viewBox="0 0 250 250" enable-background="new 0 0 250 250" xml:space="preserve">
<g id="Layer_1">
</g>
<g id="Layer_2">
</g>
<g id="Layer_3">
</g>
<g id="Layer_4">
</g>
<g id="Layer_5">
	<g>
		<path fill="#FDCB02" d="M213.5,193c3.3-3.8,6.2-7.8,8.7-11.9c1.2-2,1.8-3.7,1.8-3.7c2.6-7.3,6.5-14.1,8.2-21.8
			c0.8-3.6,1.5-7.2,2.3-10.8c-1.4-0.5-2.9-1.8-4.5-1.8c-9.4,0.3-16.2-8.7-17-16.5c-1.2-12.5-2.3-25-3.5-37.6
			c-0.4-3.8,0.9-7,2.3-10.4c1.7-4.1,5.9-7,9.3-8.9c0,0,0.1-0.1,0.1-0.1c0,0,0.1,0,0.1,0c0.3-0.2,0.7-0.4,1-0.5c0,0,0,0,0,0
			c0,0,0-0.1-0.1-0.1c-1.2-2-2.3-3.4-2.3-3.4c-5-5.9-9-12.7-14.8-18c-11.6-10.4-22.8-21.2-37.7-27.3c-9-3.7-18.4-4.1-27.7-5.9
			c-5-1-9.9-1.4-14.7-1.5c-2.3,0-4.1,0.3-4.1,0.3c-7.6,1.4-15.5,1.4-23,3.9c-14.8,4.8-29.8,9.2-42.5,18.9
			c-7.7,5.9-12.7,13.9-18.9,21c-3.3,3.8-6.2,7.8-8.7,11.9c-1.2,2-1.8,3.7-1.8,3.7c-2.6,7.3-6.5,14.1-8.2,21.8
			c-3.2,15.3-6.9,30.4-4.8,46.3c1.3,9.6,5.7,18,8.8,26.9c1.7,4.8,3.7,9.3,6,13.5c1.2,2,2.3,3.4,2.3,3.4c5,5.9,9,12.7,14.8,18
			c11.6,10.4,22.8,21.2,37.7,27.3c9,3.7,18.4,4.1,27.7,5.9c4.6,0.9,9.2,1.4,13.7,1.5c1-1.5,0.9-4.2,0.9-5.9
			c-0.2-13.6,0.7-27.1-0.2-40.7c-0.3-4.4-0.9-9.1,0.2-13.4c2.3-9,1.2-17.8,0.4-26.6c-0.2-2.4-0.3-4.7-0.2-7l0-3.7l0,0
			c0.3-1,0.9-2.6,1.4-1.9c3.9,5,5.2,7.3,7.3,13.5c4.7,13.5,10.3,26.7,15,40.2c3,8.6,7.9,16.6,9,25.9c0.5,4.1,2.3,8.9,4.8,12
			c11.3-3.8,22.2-8.1,31.9-15.5C202.3,208.2,207.3,200.1,213.5,193z M139.9,125.8c-0.8,1.8-2.2,0.2-3.2-0.1c-1-0.8-2.8-1.3-1.4-2.9
			c0.9-1,1.8-3.4,3.6-2C140.1,121.9,140.6,124.1,139.9,125.8z M169.4,130.4c-2.9,0.6-6.4,0.3-8.2-2.9c-3.2-5.8-3.6-11.8-0.8-17.9
			c1.4-2,2.8-4.3,5.8-3.7c3,0.6,4.3,2.8,4.6,5.6c0.5,4.2,1,8.4,1.3,12.7C172.3,126.7,172.2,129.8,169.4,130.4z M189.6,129.2
			c-1.7-9.7-2.6-19.5-2.9-29.3c-0.1-2,0.8-4.1,1-5.1c2-4,4.6-5.5,7.8-5.2c2.9,0.3,3.2,3.3,3.5,5.2c1.3,11.2,2.3,22.4,3.1,33.6
			c0.2,3.4-1.6,6.3-5.3,6.6C192.7,135.5,190.2,133,189.6,129.2z"/>
		<path fill="#FC9105" d="M247,149.8c0.2-1.1,0.3-2.1,0.4-3.2c-0.2-1.1-1-1.7-2-2.1c-0.7-0.2-1.5-0.3-2.4-0.2
			c-2.9,0.2-5.4-0.1-7.6,0.8c0,0,0,0-0.1,0l0,0c0,0,0,0-0.1,0c-0.1,0-0.2,0-0.3,0c-0.2,0-0.5-0.1-0.7-0.2c-0.7,3.6-1.5,7.2-2.3,10.8
			c-1.6,7.7-5.6,14.5-8.2,21.8c0,0-0.6,1.7-1.8,3.7c-2.5,4.1-5.3,8.1-8.7,11.9c-6.2,7.1-11.2,15.1-18.9,21
			c-9.7,7.4-20.7,11.7-31.9,15.5c0,0,0,0,0,0c0.7,2.5,1,3.8,1.9,6.3c1.4,3.9,3,5.4,6,4.5c6.8-3.5,13.1-7.8,19.7-11.5
			c9.6-5.4,20-9.9,25.3-20.8c0.7-1.4,2.2-2.5,3.4-3.6c5.7-5,10.3-10.8,14-17.1c1.2-2.1,2-5.1,2-5.1c2.4-6.6,5.1-13,8.5-19.1
			C245.6,159,246.4,154.4,247,149.8z"/>
		<path fill="#FC9105" d="M82.7,229.8c-14.8-6.1-26.1-16.9-37.7-27.3c-5.9-5.3-9.8-12.1-14.8-18c0,0-1.1-1.4-2.3-3.4
			c-2.3-4.2-4.4-8.7-6-13.5c-3.1-8.9-7.5-17.3-8.8-26.9c-2.1-15.9,1.6-31,4.8-46.3c1.6-7.7,5.6-14.5,8.2-21.8c0,0,0.6-1.7,1.8-3.7
			c2.5-4.1,5.3-8.1,8.7-11.9c6.2-7.1,11.2-15.1,18.9-21C68.2,26.2,83.1,21.8,97.9,17c7.5-2.4,15.3-2.4,23-3.9c0,0,1.8-0.3,4.1-0.3
			c4.8,0.1,9.7,0.6,14.7,1.5c9.3,1.8,18.7,2.1,27.7,5.9c14.8,6.1,26.1,16.9,37.7,27.3c5.9,5.3,9.8,12.1,14.8,18c0,0,1.1,1.4,2.3,3.4
			c0,0,0,0.1,0.1,0.1c0,0,0.1,0,0.1,0c1.5-1.1,2-1,3.4-1.6c2.2-1,3.7-2,4.6-3l0,0c1.2-2.4,0.7-4-0.7-5.8c-0.1-0.1-0.1-0.1-0.1-0.1
			c-0.3-0.4-0.6-0.8-1-1.2c-0.1-0.1-0.2-0.2-0.3-0.3l0,0c-4-4.9-7.8-9.9-11.1-15.4c-2.5-4-6-7-9.7-9.9c-7.8-6.1-16.7-10.1-25.1-15.1
			c-9.5-5.6-18.6-12.4-30.7-11.5c-1.6,0.1-3.3-0.6-4.8-1.1c-7.2-2.4-14.5-3.6-21.8-3.5c-2.4,0-5.4,0.8-5.4,0.8
			c-6.9,1.2-13.8,2-20.8,2.2c-4.7,0.1-9,1.7-13.4,3.5c-9.2,3.7-17.1,9.4-25.6,14.2c-9.6,5.4-20,9.9-25.3,20.8
			c-0.7,1.4-2.2,2.5-3.4,3.6c-5.7,5-10.3,10.8-14,17.1c-1.2,2.1-2,5.1-2,5.1c-2.4,6.6-5.1,13-8.5,19.1c-2.2,4.1-3,8.7-3.7,13.3
			c-1.4,9.8-0.4,19.5-0.5,29.3c-0.1,11-1.4,22.3,5.4,32.3c0.9,1.3,1.1,3.1,1.4,4.8c1.5,7.4,4.1,14.3,7.9,20.7
			c1.2,2.1,3.4,4.3,3.4,4.3c4.5,5.4,8.7,10.9,12.3,16.9c2.5,4,6,7,9.7,9.9c7.8,6.1,16.7,10.1,25.1,15.1c9.5,5.6,18.6,12.4,30.7,11.5
			c1.6-0.1,3.3,0.6,4.8,1.1c2.8,0.9,5.5,1.7,8.3,2.2l0,0c4.1,0.8,8.2,1.3,12.3,1.3c2.2-0.3,2.6-1.9,2.2-4.4c-0.5-3.1-1.1-5-1.9-8
			c0,0,0,0,0,0c-4.5-0.1-9.1-0.6-13.7-1.5C101.1,233.9,91.6,233.5,82.7,229.8z"/>
		<path fill="#FF0000" d="M169.6,58.1c-2.1-3.6-11.7-6.6-15.3-4.3c-7.2,4.5-9,14-5.9,18.5c3.7,5.4,11.3,7.5,17,4.2
			C171.1,73.2,173.1,64.2,169.6,58.1z"/>
		<path fill="#FF0000" d="M80.4,191.9c2.1,3.6,11.7,6.6,15.3,4.3c7.2-4.5,9-14,5.9-18.5c-3.7-5.4-11.3-7.5-17-4.2
			C78.9,176.8,76.9,185.8,80.4,191.9z"/>
		<path fill="#FF0000" d="M44.8,119.8c-2.1,3.7,0.2,13.5,3.9,15.4c7.5,4,16.6,0.8,19-4.2c2.8-5.9,0.9-13.5-4.9-16.8
			C57.1,110.9,48.3,113.7,44.8,119.8z"/>
		<path fill="#FF0000" d="M89.4,52.9c-4.2,0-11.6,6.9-11.4,11c0.3,8.5,7.6,14.8,13.1,14.4c6.5-0.5,12.2-6,12.1-12.6
			C103.2,59.2,96.4,52.9,89.4,52.9z"/>
		<path fill="#FF0000" d="M165.5,173.1c2.4,5.7,11.3,8.9,17.7,6.3c4-1.6,7.7-10.3,6-14.4c-2.7-6.6-11.3-10.6-17.4-8
			C165.9,159.5,163,167,165.5,173.1z"/>
	</g>
</g>
</svg>
