<?xml version="1.0" encoding="utf-8"?>
<!-- Generator: Adobe Illustrator 21.0.2, SVG Export Plug-In . SVG Version: 6.00 Build 0)  -->
<!DOCTYPE svg PUBLIC "-//W3C//DTD SVG 1.1//EN" "http://www.w3.org/Graphics/SVG/1.1/DTD/svg11.dtd">
<svg version="1.1" xmlns="http://www.w3.org/2000/svg" xmlns:xlink="http://www.w3.org/1999/xlink" x="0px" y="0px"
	 viewBox="0 0 250 250" enable-background="new 0 0 250 250" xml:space="preserve">
<g id="Layer_1">
</g>
<g id="Layer_2">
</g>
<g id="Layer_3">
</g>
<g id="Layer_4">
</g>
<g id="Layer_5">
	<g>
		<path fill="#FDCB02" d="M194.6,214.1c7.7-5.9,12.7-13.9,18.9-21c3.3-3.8,6.2-7.8,8.7-11.9c1.2-2,1.8-3.7,1.8-3.7
			c0.5-1.5,1.1-3,1.8-4.5c-3.6-3-9.1-4.1-12.7-6.8c-5.4-3.9-11-7.1-17.1-9.6c-7-2.9-12-6.8-10.2-16.1c0.2-1.3,0-2.6-0.1-3.9
			c-0.7-9-1.5-17.9-2.1-26.9c-0.8-12.4,2.6-17.8,13.8-23.3c2.2-1.1,4.3-2.4,6.3-3.8c2.8-2,4.8-5,8.2-6.2c1.5-0.5,2.5-1.1,3.5-1.9
			c0.9-0.8,1.8-1.5,2.8-2.2c1.1-0.9,2.4-1.9,4.1-3c0-0.1-0.1-0.1-0.1-0.2c-1.2-2-2.3-3.4-2.3-3.4c-5-5.9-9-12.7-14.8-18
			c-11.6-10.4-22.8-21.2-37.7-27.3c-9-3.7-18.4-4.1-27.7-5.9c-5-1-9.9-1.4-14.7-1.5c-2.3,0-4.1,0.3-4.1,0.3
			c-7.6,1.4-15.5,1.4-23,3.9c-14.8,4.8-29.8,9.2-42.5,18.9c-7.7,5.9-12.7,13.9-18.9,21c-3.3,3.8-6.2,7.8-8.7,11.9
			c-1.2,2-1.8,3.7-1.8,3.7c-2.6,7.3-6.5,14.1-8.2,21.8c-3.2,15.3-6.9,30.4-4.8,46.3c1.3,9.6,5.7,18,8.8,26.9c1.7,4.8,3.7,9.3,6,13.5
			c1.2,2,2.3,3.4,2.3,3.4c5,5.9,9,12.7,14.8,18c11.6,10.4,22.8,21.2,37.7,27.3c9,3.7,18.4,4.1,27.7,5.9c4.6,0.9,9.2,1.4,13.7,1.5
			c1-1.5,0.9-4.2,0.9-5.9c-0.2-13.6,0.7-27.1-0.2-40.7c-0.2-2.5-0.4-5-0.4-7.5c0.1-3.1,3.4-20.2,3.7-15.2
			c0.8,14.3,1.6,13.4,2.7,27.7c0.7,9.1,3.3,18.1,1.9,27.4c-0.6,4.1-0.1,9.5,1.6,13.2c0,0,0,0,0,0c6-0.8,12.1-1.2,18-3.1
			C166.9,228.2,181.8,223.8,194.6,214.1z M157.2,113.8c1-2.5,2.1-4.8,4.3-6.5c5-4.1,10.6-2.6,11.4,3.7c1.2,9.7,1.6,19.6,2,29.4
			c0.2,3.9-3.4,5.6-6.8,3.8c-1.2-0.6-2.3-1.3-3.9-2.2c-5.9-2.6-8-8-8.2-14.5C155.8,122.8,155.5,118.2,157.2,113.8z M141.3,130.4
			c-1,1.8-1.9,1.3-3.3-0.1c-0.8-1.9-5.7-2.2-3.3-6c1-1.6,2.4-4.3,5.1-3.4C141.7,121.5,142.6,128.1,141.3,130.4z"/>
		<path fill="#FC9105" d="M234.9,182.2c0.7-1.8,1.3-3.6,2.1-5.3c0,0,0,0,0,0c0.3-0.8-0.4-1.4-0.5-1.5c-0.1-0.1-0.2-0.1-0.2-0.2
			c-0.6-0.4-1.4-0.7-2.3-0.9c-2.9-0.6-5.2-1.5-7.5-1.2c0,0,0,0,0,0l-0.3,0.2c-0.1-0.1-0.3-0.2-0.4-0.3c-0.6,1.5-1.2,3-1.8,4.5
			c0,0-0.6,1.7-1.8,3.7c-2.5,4.1-5.3,8.1-8.7,11.9c-6.2,7.1-11.2,15.1-18.9,21c-12.7,9.8-27.7,14.1-42.5,18.9
			c-5.9,1.9-12,2.3-18,3.1c0.1,2.6,0,3.6,0.2,6.2c0.2,2.9,0.9,4.7,2.4,5.5c4.8-0.7,9.6-1.1,14.5-1.3c4.7-0.1,9-1.7,13.4-3.5
			c9.2-3.7,17.1-9.4,25.6-14.2c9.6-5.4,20-9.9,25.3-20.8c0.7-1.4,2.2-2.5,3.4-3.6c5.7-5,10.3-10.8,14-17.1
			C234.1,185.2,234.9,182.2,234.9,182.2z"/>
		<path fill="#FC9105" d="M82.7,229.8c-14.8-6.1-26.1-16.9-37.7-27.3c-5.9-5.3-9.8-12.1-14.8-18c0,0-1.1-1.4-2.3-3.4
			c-2.3-4.2-4.4-8.7-6-13.5c-3.1-8.9-7.5-17.3-8.8-26.9c-2.1-15.9,1.6-31,4.8-46.3c1.6-7.7,5.6-14.5,8.2-21.8c0,0,0.6-1.7,1.8-3.7
			c2.5-4.1,5.3-8.1,8.7-11.9c6.2-7.1,11.2-15.1,18.9-21C68.2,26.2,83.1,21.8,97.9,17c7.5-2.4,15.3-2.4,23-3.9c0,0,1.8-0.3,4.1-0.3
			c4.8,0.1,9.7,0.6,14.7,1.5c9.3,1.8,18.7,2.1,27.7,5.9c14.8,6.1,26.1,16.9,37.7,27.3c5.9,5.3,9.8,12.1,14.8,18c0,0,1.1,1.4,2.3,3.4
			c0,0.1,0.1,0.1,0.1,0.2c0,0,0,0,0,0h0c1.6-1.1,2.1-1,3.5-1.7c2.2-1,3.7-2,4.6-3l0,0c1.2-2.4,0.7-4-0.7-5.8
			c-0.1-0.1-0.1-0.1-0.1-0.1c-0.3-0.4-0.6-0.8-1-1.2c-0.1-0.1-0.2-0.2-0.3-0.3l0,0c-4-4.9-7.8-9.9-11.1-15.4c-2.5-4-6-7-9.7-9.9
			c-7.8-6.1-16.7-10.1-25.1-15.1c-9.5-5.6-18.6-12.4-30.7-11.5c-1.6,0.1-3.3-0.6-4.8-1.1c-7.2-2.4-14.5-3.6-21.8-3.5
			c-2.4,0-5.4,0.8-5.4,0.8c-6.9,1.2-13.8,2-20.8,2.2c-4.7,0.1-9,1.7-13.4,3.5c-9.2,3.7-17.1,9.4-25.6,14.2
			c-9.6,5.4-20,9.9-25.3,20.8c-0.7,1.4-2.2,2.5-3.4,3.6c-5.7,5-10.3,10.8-14,17.1c-1.2,2.1-2,5.1-2,5.1c-2.4,6.6-5.1,13-8.5,19.1
			c-2.2,4.1-3,8.7-3.7,13.3c-1.4,9.8-0.4,19.5-0.5,29.3c-0.1,11-1.4,22.3,5.4,32.3c0.9,1.3,1.1,3.1,1.4,4.8
			c1.5,7.4,4.1,14.3,7.9,20.7c1.2,2.1,3.4,4.3,3.4,4.3c4.5,5.4,8.7,10.9,12.3,16.9c2.5,4,6,7,9.7,9.9c7.8,6.1,16.7,10.1,25.1,15.1
			c9.5,5.6,18.6,12.4,30.7,11.5c1.6-0.1,3.3,0.6,4.8,1.1c2.8,0.9,5.5,1.7,8.3,2.2l0,0c4.1,0.8,8.2,1.3,12.3,1.3
			c2.2-0.3,2.6-1.9,2.2-4.4c-0.5-3.1-1.1-5-1.9-8c0,0,0,0,0,0c-4.5-0.1-9.1-0.6-13.7-1.5C101.1,233.9,91.6,233.5,82.7,229.8z"/>
		<path fill="#FF0000" d="M169.6,58.1c-2.1-3.6-11.7-6.6-15.3-4.3c-7.2,4.5-9,14-5.9,18.5c3.7,5.4,11.3,7.5,17,4.2
			C171.1,73.2,173.1,64.2,169.6,58.1z"/>
		<path fill="#FF0000" d="M80.4,191.9c2.1,3.6,11.7,6.6,15.3,4.3c7.2-4.5,9-14,5.9-18.5c-3.7-5.4-11.3-7.5-17-4.2
			C78.9,176.8,76.9,185.8,80.4,191.9z"/>
		<path fill="#FF0000" d="M44.8,119.8c-2.1,3.7,0.2,13.5,3.9,15.4c7.5,4,16.6,0.8,19-4.2c2.8-5.9,0.9-13.5-4.9-16.8
			C57.1,110.9,48.3,113.7,44.8,119.8z"/>
		<path fill="#FF0000" d="M89.4,52.9c-4.2,0-11.6,6.9-11.4,11c0.3,8.5,7.6,14.8,13.1,14.4c6.5-0.5,12.2-6,12.1-12.6
			C103.2,59.2,96.4,52.9,89.4,52.9z"/>
		<path fill="#FF0000" d="M167,192.7c4.3-0.5,10.1-8,9.6-12.3c-0.8-7.1-8.2-13.2-14.7-12.3c-6.4,0.9-11.1,7.3-10.3,13.9
			C152.4,188.2,160.1,193.5,167,192.7z"/>
	</g>
</g>
</svg>
