<?xml version="1.0" encoding="utf-8"?>
<!-- Generator: Adobe Illustrator 21.0.2, SVG Export Plug-In . SVG Version: 6.00 Build 0)  -->
<!DOCTYPE svg PUBLIC "-//W3C//DTD SVG 1.1//EN" "http://www.w3.org/Graphics/SVG/1.1/DTD/svg11.dtd">
<svg version="1.1" xmlns="http://www.w3.org/2000/svg" xmlns:xlink="http://www.w3.org/1999/xlink" x="0px" y="0px"
	 viewBox="0 0 250 250" enable-background="new 0 0 250 250" xml:space="preserve">
<g id="Layer_1">
</g>
<g id="Layer_2">
</g>
<g id="Layer_3">
</g>
<g id="Layer_4">
</g>
<g id="Layer_5">
	<g>
		<path fill="#FDCB02" d="M219.8,65.5c-5-5.9-9-12.7-14.8-18c-11.6-10.4-22.8-21.2-37.7-27.3c-9-3.7-18.4-4.1-27.7-5.9
			c-5-1-9.9-1.4-14.7-1.5c-2.3,0-4.1,0.3-4.1,0.3c-7.6,1.4-15.5,1.4-23,3.9c-14.8,4.8-29.8,9.2-42.5,18.9
			c-7.7,5.9-12.7,13.9-18.9,21c-3.3,3.8-6.2,7.8-8.7,11.9c-1.2,2-1.8,3.7-1.8,3.7c-2.6,7.3-6.5,14.1-8.2,21.8
			c-3.2,15.3-6.9,30.4-4.8,46.3c1.3,9.6,5.7,18,8.8,26.9c1.7,4.8,3.7,9.3,6,13.5c1.2,2,2.3,3.4,2.3,3.4c5,5.9,9,12.7,14.8,18
			c11.6,10.4,22.8,21.2,37.7,27.3c9,3.7,18.4,4.1,27.7,5.9c4.5,0.9,9,1.3,13.4,1.5c0-0.3-0.1-0.5-0.1-0.8c-0.1-0.4,0-0.8,0.2-1.1
			l1.3-2.3c0.7,0.2,0.8,0,1.4,0.3c0.6,0.3,0.1,2.4,0.1,3.5c0,0.1,0,0.2,0,0.3c1.5-0.1,2.6-0.3,2.6-0.3c7.6-1.4,15.5-1.4,23-3.9
			c14.8-4.8,29.8-9.2,42.5-18.9c7.7-5.9,12.7-13.9,18.9-21c3.3-3.8,6.2-7.8,8.7-11.9c0,0,0-0.1,0.1-0.1c-0.3-0.1-0.6-0.3-0.7-0.6
			c-3.7-4.1-10.2-5.2-14.2-8.6c-7.1-6-15.8-9.2-23.8-13.5c-12.7-6.7-24.8-13.9-33.4-25.8c-2-2.8-4.1-3.3-6.6-1.3
			c-3.1,2.6-5.5,1.5-7.5-1.2c-1.3-1.8-4.8-3.8-3-5.8c2.2-2.4,4.2-7.4,8.9-4.9c5.7,3.1,8.1-0.4,10.3-4.4c3.9-6.9,9.3-11.9,16.5-15.2
			c4.4-2,8.4-4.4,12.4-7.1c10.1-6.9,19.7-14.7,31.8-18.2c2.3-0.7,4.1-1.5,6-2.7c0.8-0.9,1.8-1.7,3-2.4c0.1-0.1,0.2-0.2,0.3-0.2l0,0
			c0,0,0-0.1-0.1-0.1C221,66.9,219.8,65.5,219.8,65.5z M124.2,174.7c1.4,5.2,1.2,10.3,0.8,15.5c-0.1,0.7-0.1,1.4-0.2,2.2
			c-0.2-0.7-0.3-1.4-0.5-2C123.4,185.1,123.5,179.9,124.2,174.7z M125.1,217.5c0.4-6.9-1-14.4,0-21.9c0.4,4.2,0.4,8.6,1.4,12.7
			C127.4,211.9,125.7,214.7,125.1,217.5z"/>
		<path fill="#FC9105" d="M232.3,188.2c0.1-0.2,0.2-0.4,0.3-0.5c0.1-0.2,0.2-0.5,0.3-0.7c0.3-1.3-0.1-2.3-1.1-3.1
			c-0.6-0.4-1.3-0.8-2.2-1c-2.8-0.8-5.1-1.9-7.4-1.8c0,0,0,0,0,0c0,0,0,0.1-0.1,0.1c-2.5,4.1-5.3,8.1-8.7,11.9
			c-6.2,7.1-11.2,15.1-18.9,21c-12.7,9.8-27.7,14.1-42.5,18.9c-7.5,2.4-15.3,2.4-23,3.9c0,0-1,0.2-2.6,0.3c-0.2,1.2,0,2.4-0.5,3.6
			c-0.2,0.5-1,0.6-1.3,0.2c-0.9-1.1-0.8-2.5-0.9-3.7c-4.4-0.1-8.9-0.6-13.4-1.5c-9.3-1.8-18.7-2.1-27.7-5.9
			c-14.8-6.1-26.1-16.9-37.7-27.3c-5.9-5.3-9.8-12.1-14.8-18c0,0-1.1-1.4-2.3-3.4c-2.3-4.2-4.4-8.7-6-13.5
			c-3.1-8.9-7.5-17.3-8.8-26.9c-2.1-15.9,1.6-31,4.8-46.3c1.6-7.7,5.6-14.5,8.2-21.8c0,0,0.6-1.7,1.8-3.7c2.5-4.1,5.3-8.1,8.7-11.9
			c6.2-7.1,11.2-15.1,18.9-21C68.2,26.2,83.1,21.8,97.9,17c7.5-2.4,15.3-2.4,23-3.9c0,0,1.8-0.3,4.1-0.3c4.8,0.1,9.7,0.6,14.7,1.5
			c9.3,1.8,18.7,2.1,27.7,5.9c14.8,6.1,26.1,16.9,37.7,27.3c5.9,5.3,9.8,12.1,14.8,18c0,0,1.1,1.4,2.3,3.4c0,0,0,0.1,0.1,0.1l0.1,0
			c1.5-1.1,2-1,3.5-1.6c2.2-1,3.7-2,4.6-3l0,0c1.2-2.4,0.7-4-0.7-5.8c-0.1-0.1-0.1-0.1-0.1-0.1c-0.3-0.4-0.6-0.8-1-1.2
			c-0.1-0.1-0.2-0.2-0.3-0.3l0,0c-4-4.9-7.8-9.9-11.1-15.4c-2.5-4-6-7-9.7-9.9c-7.8-6.1-16.7-10.1-25.1-15.1
			c-9.5-5.6-18.6-12.4-30.7-11.5c-1.6,0.1-3.3-0.6-4.8-1.1c-7.2-2.4-14.5-3.6-21.8-3.5c-2.4,0-5.4,0.8-5.4,0.8
			c-6.9,1.2-13.8,2-20.8,2.2c-4.7,0.1-9,1.7-13.4,3.5c-9.2,3.7-17.1,9.4-25.6,14.2c-9.6,5.4-20,9.9-25.3,20.8
			c-0.7,1.4-2.2,2.5-3.4,3.6c-5.7,5-10.3,10.8-14,17.1c-1.2,2.1-2,5.1-2,5.1c-2.4,6.6-5.1,13-8.5,19.1c-2.2,4.1-3,8.7-3.7,13.3
			c-1.4,9.8-0.4,19.5-0.5,29.3c-0.1,11-1.4,22.3,5.4,32.3c0.9,1.3,1.1,3.1,1.4,4.8c1.5,7.4,4.1,14.3,7.9,20.7
			c1.2,2.1,3.4,4.3,3.4,4.3c4.5,5.4,8.7,10.9,12.3,16.9c2.5,4,6,7,9.7,9.9c7.8,6.1,16.7,10.1,25.1,15.1c9.5,5.6,18.6,12.4,30.7,11.5
			c1.6-0.1,3.3,0.6,4.8,1.1c2.8,0.9,5.5,1.7,8.3,2.2l0,0c4.1,0.8,8.2,1.3,12.3,1.3c0.3,0,0.6-0.1,0.8-0.2c0.2-0.1,0.4-0.3,0.6-0.5
			c0,0,0,0,0-0.1c0.2-0.2,0.3-0.5,0.5-0.8c0.2-0.3,0.8-1.1,1.1-0.2c0.1,0.2,0.1,0.3,0.2,0.5c0.1,0.1,0.2,0.2,0.3,0.4l0,0
			c0.7,0.3,1.5,0.4,2.5,0.3c0.3-0.1,0.6-0.1,0.6-0.1c6.9-1.2,13.8-2,20.8-2.2c4.7-0.1,9-1.7,13.4-3.5c9.2-3.7,17.1-9.4,25.6-14.2
			c9.6-5.4,20-9.9,25.3-20.8c0.7-1.4,2.2-2.5,3.4-3.6C224.3,199.6,228.8,194.2,232.3,188.2z"/>
		<path fill="#FF0000" d="M169.6,58.1c-2.1-3.6-11.7-6.6-15.3-4.3c-7.2,4.5-9,14-5.9,18.5c3.7,5.4,11.3,7.5,17,4.2
			C171.1,73.2,173.1,64.2,169.6,58.1z"/>
		<path fill="#FF0000" d="M80.4,191.9c2.1,3.6,11.7,6.6,15.3,4.3c7.2-4.5,9-14,5.9-18.5c-3.7-5.4-11.3-7.5-17-4.2
			C78.9,176.8,76.9,185.8,80.4,191.9z"/>
		<path fill="#FF0000" d="M44.8,119.8c-2.1,3.7,0.2,13.5,3.9,15.4c7.5,4,16.6,0.8,19-4.2c2.8-5.9,0.9-13.5-4.9-16.8
			C57.1,110.9,48.3,113.7,44.8,119.8z"/>
		<path fill="#FF0000" d="M89.4,52.9c-4.2,0-11.6,6.9-11.4,11c0.3,8.5,7.6,14.8,13.1,14.4c6.5-0.5,12.2-6,12.1-12.6
			C103.2,59.2,96.4,52.9,89.4,52.9z"/>
		<path fill="#FF0000" d="M161.5,195.8c4.3-0.2,10.7-7.2,10.5-11.5c-0.3-7.1-7.1-13.8-13.7-13.4c-6.4,0.4-11.7,6.4-11.4,13
			C147.3,190.1,154.6,196.1,161.5,195.8z"/>
	</g>
</g>
</svg>
