<?xml version="1.0" encoding="utf-8"?>
<!-- Generator: Adobe Illustrator 21.0.2, SVG Export Plug-In . SVG Version: 6.00 Build 0)  -->
<!DOCTYPE svg PUBLIC "-//W3C//DTD SVG 1.1//EN" "http://www.w3.org/Graphics/SVG/1.1/DTD/svg11.dtd">
<svg version="1.1" xmlns="http://www.w3.org/2000/svg" xmlns:xlink="http://www.w3.org/1999/xlink" x="0px" y="0px"
	 viewBox="0 0 250 250" enable-background="new 0 0 250 250" xml:space="preserve">
<g id="Layer_1">
	<g>
		<path fill="#FDCB02" d="M26.1,72.6c-2.6,7.3-6.5,14.1-8.2,21.8c-3.2,15.3-6.9,30.4-4.8,46.3c1.3,9.6,5.7,18,8.8,26.9
			c1.7,4.8,3.7,9.3,6,13.5c1.2,2,2.3,3.4,2.3,3.4c5,5.9,9,12.7,14.8,18c11.6,10.4,22.8,21.2,37.7,27.3c9,3.7,18.4,4.1,27.7,5.9
			c5,1,9.9,1.4,14.7,1.5c2.3,0,4.1-0.3,4.1-0.3c7.6-1.4,15.5-1.4,23-3.9c14.8-4.8,29.8-9.2,42.5-18.9c7.7-5.9,12.7-13.9,18.9-21
			c3.3-3.8,6.2-7.8,8.7-11.9c1.2-2,1.8-3.7,1.8-3.7c2.6-7.3,6.5-14.1,8.2-21.8c3.2-15.3,6.9-30.4,4.8-46.3c-1.3-9.6-5.7-18-8.8-26.9
			c-1.5-4.5-3.4-8.7-5.6-12.6c-1.7-0.1-4.1,1.4-5.5,2.2c-11.6,7-23.9,12.9-35.1,20.5c-3.7,2.5-7.5,5.4-11.6,6.5
			c-8.9,2.5-16,7.8-23.3,13c-1.9,1.4-3.9,2.6-6,3.7l-3.2,1.9c3.1-4.9,4.2-5.8,9.1-9.8c11.1-9,21.6-18.7,32.7-27.7
			c7.1-5.8,13-13.1,21.4-17.3c3.7-1.8,7.9-5.3,9.9-8.8c0,0,0,0,0,0c-1.8-2.3-3.7-4.5-6-6.5c-11.6-10.4-22.8-21.2-37.7-27.3
			c-9-3.7-18.4-4.1-27.7-5.9c-5-1-9.9-1.4-14.7-1.5c-2.3,0-4.1,0.3-4.1,0.3c-4.7,0.9-9.5,1.2-14.3,1.9c0.3,2,0.1,4.1,0.5,6
			c0.5,4.4,0.9,8.7,0.2,13.1c-0.9,5.5,0.7,13.3,3.1,18.5c1.7,3.8,0.3,7.7-3.8,9.9c-3.3,1.7-6.5,3.6-9.6,5.9
			c-6.6,4.8-13.3,9.6-20.1,14.1c-8.1,5.4-13.8,4.4-19.8-3.3c-1.6-2-3.3-3.8-5.9-4c-6.4-0.4-12.6-1.2-18.2-4.8c0,0-0.1,0-0.1-0.1
			c-1.1-0.2-2.2-0.6-3.4-1.1c-0.5-0.1-1.1-0.3-1.5-0.5l0.1-0.2c0,0,0,0,0,0c0,0.1-0.1,0.1-0.1,0.2C26.7,70.9,26.1,72.6,26.1,72.6z
			 M121.8,108.3c0.1,3.3,1.1,6.9-2.1,8.7c-1.3,0.7-5.3-0.4-5.3-2.1C114.4,110.8,118,109.3,121.8,108.3z M90.8,90.5
			c6.4-4.8,13-9.4,19.7-13.8c3.4-2.3,5.4-1.1,5.6,2.9c0,0.5-0.1,1,0,1.5c3.3,9.6-3.2,13.5-10,17.3c-3.4,1.9-6.8,4.1-10.6,3.7
			c-3.8,0-7-0.6-8.4-4.3C85.8,94.1,88.6,92.2,90.8,90.5z"/>
		<path fill="#FC9105" d="M242.2,88.1c-0.9-1.3-1.1-3.1-1.4-4.8c-0.6-2.8-1.3-5.6-2.2-8.3l0,0c-1.3-3.9-3-7.7-5-11.3
			c-1.3-1.7-2.9-1.3-4.9,0.3c-2.4,2-3.8,3.5-6,5.6c0,0,0,0,0,0c2.1,4,4,8.2,5.6,12.6c3.1,8.9,7.5,17.3,8.8,26.9
			c2.1,15.9-1.6,31-4.8,46.3c-1.6,7.7-5.6,14.5-8.2,21.8c0,0-0.6,1.7-1.8,3.7c-2.5,4.1-5.3,8.1-8.7,11.9c-6.2,7.1-11.2,15.1-18.9,21
			c-12.7,9.8-27.7,14.1-42.5,18.9c-7.5,2.4-15.3,2.4-23,3.9c0,0-1.8,0.3-4.1,0.3c-4.8-0.1-9.7-0.6-14.7-1.5
			c-9.3-1.8-18.7-2.1-27.7-5.9c-14.8-6.1-26.1-16.9-37.7-27.3c-5.9-5.3-9.8-12.1-14.8-18c0,0-1.1-1.4-2.3-3.4
			c-2.3-4.2-4.4-8.7-6-13.5c-3.1-8.9-7.5-17.3-8.8-26.9c-2.1-15.9,1.6-31,4.8-46.3c1.6-7.7,5.6-14.5,8.2-21.8c0,0,0.6-1.7,1.8-3.7
			c0-0.1,0.1-0.1,0.1-0.2c-1.8-0.8-1.9-1.3-3.2-2.2c-2-1.4-3.6-2.2-4.9-2.5l0,0c-2.7,0.1-3.8,1.4-4.7,3.5c0,0.1-0.1,0.2-0.1,0.2
			c-0.2,0.6-0.4,1.2-0.7,1.7c0,0,0,0.1,0,0.1l0,0c-2.2,5.9-4.7,11.7-7.8,17.3c-2.2,4.1-3,8.7-3.7,13.3c-1.4,9.8-0.4,19.5-0.5,29.3
			c-0.1,11-1.4,22.3,5.4,32.3c0.9,1.3,1.1,3.1,1.4,4.8c1.5,7.5,4.1,14.3,7.9,20.7c1.2,2.1,3.4,4.3,3.4,4.3
			c4.5,5.4,8.7,10.9,12.3,16.9c2.5,4,6,7,9.7,9.9c7.8,6.1,16.7,10.1,25.1,15.1c9.5,5.6,18.6,12.4,30.7,11.5c1.6-0.1,3.3,0.6,4.8,1.1
			c7.2,2.4,14.5,3.6,21.8,3.5c2.4,0,5.4-0.8,5.4-0.8c6.9-1.2,13.8-2,20.8-2.2c4.7-0.1,9-1.7,13.4-3.5c9.2-3.7,17.1-9.4,25.6-14.2
			c9.6-5.4,20-9.9,25.3-20.8c0.7-1.4,2.2-2.5,3.4-3.6c5.7-5,10.3-10.8,14-17.1c1.2-2.1,2-5.1,2-5.1c2.4-6.6,5.1-13,8.5-19.1
			c2.2-4.1,3-8.7,3.7-13.3c1.4-9.8,0.4-19.5,0.5-29.3C247.6,109.4,248.9,98.1,242.2,88.1z"/>
		<path fill="#FC9105" d="M125,12.8c4.8,0.1,9.7,0.6,14.7,1.5c9.3,1.8,18.7,2.1,27.7,5.9c14.8,6.1,26.1,16.9,37.7,27.3
			c2.2,2,4.1,4.2,6,6.5c2.1-1.6,3-2,5-3.7c3.9-3.2,4.4-5.6,0.4-8.9c-4.9-4.1-9.5-8.4-13.8-13.1c-6.5-4.3-13.6-7.7-20.3-11.6
			c-9.5-5.6-18.6-12.4-30.7-11.5c-1.6,0.1-3.3-0.6-4.8-1.1c-7.2-2.4-14.5-3.6-21.8-3.5c-2.4,0-5.4,0.8-5.4,0.8
			c-5.1,0.9-10.3,1.6-15.5,2c0,0,0,0,0,0c-1.2,0.1-1.5,1.3-1.5,1.3c0,0.2,0,0.4,0,0.6c0,0.7,0.2,1.5,0.6,2.3
			c1.2,2.7,1.7,5.1,3.3,6.9c0.1,0.1,0.1,0.3,0.1,0.4l0,0c0,0.1,0,0.2,0,0.3c4.8-0.7,9.6-1,14.3-1.9C120.9,13.1,122.7,12.8,125,12.8z
			"/>
		<path fill="#FF0000" d="M205.2,130.2c2.1-3.7-0.2-13.5-3.9-15.4c-7.5-4-16.6-0.8-19,4.2c-2.8,5.9-0.9,13.5,4.9,16.8
			C192.9,139.1,201.7,136.3,205.2,130.2z"/>
		<path fill="#FF0000" d="M160.6,197.1c4.2,0,11.6-6.9,11.4-11c-0.3-8.5-7.6-14.8-13.1-14.4c-6.5,0.5-12.2,6-12.1,12.6
			C146.8,190.8,153.6,197.1,160.6,197.1z"/>
		<path fill="#FF0000" d="M80.4,191.9c2.1,3.6,11.7,6.6,15.3,4.3c7.2-4.5,9-14,5.9-18.5c-3.7-5.4-11.3-7.5-17-4.2
			C78.9,176.8,76.9,185.8,80.4,191.9z"/>
		<path fill="#FF0000" d="M44.8,119.8c-2.1,3.7,0.2,13.5,3.9,15.4c7.5,4,16.6,0.8,19-4.2c2.8-5.9,0.9-13.5-4.9-16.8
			C57.1,110.9,48.3,113.7,44.8,119.8z"/>
		<path fill="#FF0000" d="M156.6,70.6c4.6-4.2,4.6-13.6,0-18.8c-2.9-3.2-12.3-3.7-15.6-0.8c-5.3,4.7-6.2,14.2-1.7,19.1
			C143.7,74.8,151.7,75,156.6,70.6z"/>
	</g>
</g>
<g id="Layer_2">
</g>
<g id="Layer_3">
</g>
<g id="Layer_4">
</g>
<g id="Layer_5">
</g>
</svg>
