<?xml version="1.0" encoding="utf-8"?>
<!-- Generator: Adobe Illustrator 21.0.2, SVG Export Plug-In . SVG Version: 6.00 Build 0)  -->
<!DOCTYPE svg PUBLIC "-//W3C//DTD SVG 1.1//EN" "http://www.w3.org/Graphics/SVG/1.1/DTD/svg11.dtd">
<svg version="1.1" xmlns="http://www.w3.org/2000/svg" xmlns:xlink="http://www.w3.org/1999/xlink" x="0px" y="0px"
	 viewBox="0 0 250 250" enable-background="new 0 0 250 250" xml:space="preserve">
<g id="Layer_1">
</g>
<g id="Layer_2">
</g>
<g id="Layer_3">
	<g>
		<path fill="#FDCB02" d="M129.1,236.9c7.6-1.4,15.5-1.4,23-3.9c14.8-4.8,29.8-9.2,42.5-18.9c7.7-5.9,12.7-13.9,18.9-21
			c3.3-3.8,6.2-7.8,8.7-11.9c1.2-2,1.8-3.7,1.8-3.7c2.6-7.3,6.5-14.1,8.2-21.8c3.2-15.3,6.9-30.4,4.8-46.3c-1.3-9.6-5.7-18-8.8-26.9
			c-1.7-4.8-3.7-9.3-6-13.5c-1.2-2-2.3-3.4-2.3-3.4c-5-5.9-9-12.7-14.8-18c-11.6-10.4-22.8-21.2-37.7-27.3c-9-3.7-18.4-4.1-27.7-5.9
			c-5-1-9.9-1.4-14.7-1.5c-2.3,0-4.1,0.3-4.1,0.3c-7.6,1.4-15.5,1.4-23,3.9c-14.8,4.8-29.8,9.2-42.5,18.9
			c-7.7,5.9-12.7,13.9-18.9,21c-3.1,3.6-5.8,7.3-8.2,11.1c0.8,1.6,3.2,2.9,4.6,3.7C44.9,78.4,56.2,86,68.4,91.9
			c4,2,8.4,3.8,11.5,6.8c5.8,5.6,12.6,9,19.6,12.2h0c2.5,1.4,4.7,4.6,0.2,2.5c-13-6-26.6-10.6-39.7-16.3c-8.4-3.7-17.6-5.5-25.1-11
			c-3.3-2.4-8.3-4.5-12.3-4.7c-1.8,4.2-3.6,8.5-4.6,13.1c-3.2,15.3-6.9,30.4-4.8,46.3c1.3,9.6,5.7,18,8.8,26.9
			c1.7,4.8,3.7,9.3,6,13.5c1.2,2,2.3,3.4,2.3,3.4c2,2.4,3.9,4.9,5.7,7.4c6-2.7,10.8-7.4,16.8-10.4c5.2-2.6,9-5.6,13.5-9.5
			c4.7-4,8.3-5,13.6-1.5c4.2,2.8,8.8,4.9,13.4,7c6.8,3.1,13.7,6.2,20.2,9.7c6.1,3.3,9.8,8.6,8.3,15.7c-2.3,11,2.1,21.1,2.9,31.6
			c0.2,0.9,0.3,1.8,0.3,2.7c0,0,0,0,0,0c0.1,0,0.1,0,0.2,0C127.3,237.2,129.1,236.9,129.1,236.9z M120.4,171.4c-2.7,2.9-6,1.9-9,0.5
			c-7.2-3.3-14.4-6.7-21.6-10.1c-2.2-1-3.8-2.6-3.9-5.1c-0.1-2.5,2.2-2.4,4.5-3.9c2.8-3,6.7-5.2,11.9-3.2
			c6.9,2.6,13.7,5.6,17.9,11.9C122.2,164.4,123.4,168.2,120.4,171.4z M121.2,139.5c-1.5,1.5-7.3-0.6-8.6-2.9c-1-1.1-0.6-2.3,0.8-2.4
			c2.5-0.3,5.1-3.5,7.3-0.7C121.8,134.7,123.3,137.5,121.2,139.5z"/>
		<path fill="#FC9105" d="M242.2,88.1c-0.9-1.3-1.1-3.1-1.4-4.8c-1.5-7.4-4.1-14.3-7.9-20.7c-1.2-2.1-3.4-4.3-3.4-4.3
			c-4.5-5.4-8.7-10.9-12.3-16.9c-2.5-4-6-7-9.7-9.9c-7.8-6.1-16.7-10.1-25.1-15.1c-9.5-5.6-18.6-12.4-30.7-11.5
			c-1.6,0.1-3.3-0.6-4.8-1.1c-7.2-2.4-14.5-3.6-21.8-3.5c-2.4,0-5.4,0.8-5.4,0.8c-6.9,1.2-13.8,2-20.8,2.2c-4.7,0.1-9,1.7-13.4,3.5
			c-9.2,3.7-17.1,9.4-25.6,14.2c-9.6,5.4-20,9.9-25.3,20.8c-0.7,1.4-2.2,2.5-3.4,3.6c-2.2,1.9-4.2,4-6.1,6.1l0,0
			c-2.7,3.1-5.2,6.4-7.3,10c-0.9,2,0.3,3.2,2.7,4.1c2.9,1.1,4.9,1.5,7.9,2.4c0,0,0,0,0,0c2.4-3.8,5.1-7.6,8.2-11.1
			c6.2-7.1,11.2-15.1,18.9-21C68.2,26.2,83.1,21.8,97.9,17c7.5-2.4,15.3-2.4,23-3.9c0,0,1.8-0.3,4.1-0.3c4.8,0.1,9.7,0.6,14.7,1.5
			c9.3,1.8,18.7,2.1,27.7,5.9c14.8,6.1,26.1,16.9,37.7,27.3c5.9,5.3,9.8,12.1,14.8,18c0,0,1.1,1.4,2.3,3.4c2.3,4.2,4.4,8.7,6,13.5
			c3.1,8.9,7.5,17.3,8.8,26.9c2.1,15.9-1.6,31-4.8,46.3c-1.6,7.7-5.6,14.5-8.2,21.8c0,0-0.6,1.7-1.8,3.7c-2.5,4.1-5.3,8.1-8.7,11.9
			c-6.2,7.1-11.2,15.1-18.9,21c-12.7,9.8-27.7,14.1-42.5,18.9c-7.5,2.4-15.3,2.4-23,3.9c0,0-1.8,0.3-4.1,0.3c-0.1,0-0.1,0-0.2,0
			c0.2,1.9-0.2,2.3-0.3,3.9c-0.2,2.4-0.1,4.2,0.3,5.5l0,0c1.4,2.3,3.1,2.6,5.3,2.3c0.1,0,0.2-0.1,0.2-0.1c0.6-0.1,1.2-0.2,1.8-0.3
			c0,0,0.1,0,0.1,0l0,0c6.2-1,12.5-1.7,18.8-1.9c4.7-0.1,9-1.7,13.4-3.5c9.2-3.7,17.1-9.4,25.6-14.2c9.6-5.4,20-9.9,25.3-20.8
			c0.7-1.4,2.2-2.5,3.4-3.6c5.7-5,10.3-10.8,14-17.1c1.2-2.1,2-5.1,2-5.1c2.4-6.6,5.1-13,8.5-19.1c2.2-4.1,3-8.7,3.7-13.3
			c1.4-9.8,0.4-19.5,0.5-29.3C247.6,109.4,248.9,98.1,242.2,88.1z"/>
		<path fill="#FC9105" d="M27.9,181.1c-2.3-4.2-4.4-8.7-6-13.5c-3.1-8.9-7.5-17.3-8.8-26.9c-2.1-15.9,1.6-31,4.8-46.3
			c1-4.6,2.8-8.9,4.6-13.1c0,0,0,0,0,0c-2.4-1.2-3.2-1.7-5.7-2.8c-2.6-1.1-4.5-1.4-5.9-0.5c-1.3,3-2.7,5.9-4.3,8.8
			c-2.2,4.1-3,8.7-3.7,13.3c-1.4,9.8-0.4,19.5-0.5,29.3c-0.1,11-1.4,22.3,5.4,32.3c0.9,1.3,1.1,3.1,1.4,4.8
			c1.5,7.4,4.1,14.3,7.9,20.7c1.2,2.1,3.4,4.3,3.4,4.3c2.3,2.8,4.5,5.6,6.7,8.5c0.6,0.4,1.2,0.2,1.3,0.1c0.1,0,0.2-0.1,0.3-0.2
			c0.6-0.4,1.2-0.9,1.8-1.6c1.9-2.3,3.8-3.9,4.6-6.1c0.1-0.1,0.2-0.2,0.3-0.3l0,0c0.1-0.1,0.2-0.1,0.4-0.2c-1.9-2.5-3.7-5-5.7-7.4
			C30.2,184.5,29,183.1,27.9,181.1z"/>
		<path fill="#FF0000" d="M169.6,58.1c-2.1-3.6-11.7-6.6-15.3-4.3c-7.2,4.5-9,14-5.9,18.5c3.7,5.4,11.3,7.5,17,4.2
			C171.1,73.2,173.1,64.2,169.6,58.1z"/>
		<path fill="#FF0000" d="M205.2,130.2c2.1-3.7-0.2-13.5-3.9-15.4c-7.5-4-16.6-0.8-19,4.2c-2.8,5.9-0.9,13.5,4.9,16.8
			C192.9,139.1,201.7,136.3,205.2,130.2z"/>
		<path fill="#FF0000" d="M160.6,197.1c4.2,0,11.6-6.9,11.4-11c-0.3-8.5-7.6-14.8-13.1-14.4c-6.5,0.5-12.2,6-12.1,12.6
			C146.8,190.8,153.6,197.1,160.6,197.1z"/>
		<path fill="#FF0000" d="M89.4,52.9c-4.2,0-11.6,6.9-11.4,11c0.3,8.5,7.6,14.8,13.1,14.4c6.5-0.5,12.2-6,12.1-12.6
			C103.2,59.2,96.4,52.9,89.4,52.9z"/>
		<path fill="#FF0000" d="M62.2,122c-5.8-2.2-14.2,2.2-16.6,8.7c-1.5,4,2.4,12.7,6.4,14.2c6.7,2.6,15.5-1.1,17.7-7.3
			C71.8,131.5,68.4,124.3,62.2,122z"/>
	</g>
</g>
<g id="Layer_4">
</g>
<g id="Layer_5">
</g>
</svg>
