<?xml version="1.0" encoding="utf-8"?>
<!-- Generator: Adobe Illustrator 21.0.2, SVG Export Plug-In . SVG Version: 6.00 Build 0)  -->
<!DOCTYPE svg PUBLIC "-//W3C//DTD SVG 1.1//EN" "http://www.w3.org/Graphics/SVG/1.1/DTD/svg11.dtd">
<svg version="1.1" xmlns="http://www.w3.org/2000/svg" xmlns:xlink="http://www.w3.org/1999/xlink" x="0px" y="0px"
	 viewBox="0 0 250 250" enable-background="new 0 0 250 250" xml:space="preserve">
<g id="Layer_1">
</g>
<g id="Layer_2">
	<g>
		<path fill="#FDCB02" d="M30.2,184.5c5,5.9,9,12.7,14.8,18c11.6,10.4,22.8,21.2,37.7,27.3c9,3.7,18.4,4.1,27.7,5.9
			c5,1,9.9,1.4,14.7,1.5c2.3,0,4.1-0.3,4.1-0.3c7.6-1.4,15.5-1.4,23-3.9c14.8-4.8,29.8-9.2,42.5-18.9c7.7-5.9,12.7-13.9,18.9-21
			c3.3-3.8,6.2-7.8,8.7-11.9c1.2-2,1.8-3.7,1.8-3.7c2.6-7.3,6.5-14.1,8.2-21.8c3.2-15.3,6.9-30.4,4.8-46.3c-1.3-9.6-5.7-18-8.8-26.9
			c-1.7-4.8-3.7-9.3-6-13.5c-1.2-2-2.3-3.4-2.3-3.4c-5-5.9-9-12.7-14.8-18c-11.6-10.4-22.8-21.2-37.7-27.3c-9-3.7-18.4-4.1-27.7-5.9
			c-4.6-0.9-9.2-1.4-13.7-1.5c-1,1.5-0.9,4.2-0.9,5.9c0.2,13.6-0.7,27.1,0.2,40.7c0.3,4.4,0.9,9.1-0.2,13.4
			c-2.3,9-1.2,17.8-0.4,26.6c0.2,2.4,0.3,4.7,0.2,7v3.7c-2.7-5.1-2.9-6.5-3.9-12.8c-2.2-14.1-5.4-28.1-7.7-42.2
			c-1.4-9-4.8-17.8-4.3-27.1c0.3-4.1-0.7-9.5-2.7-13c0,0,0,0,0,0c-2.9,0.4-5.8,1-8.6,1.9c-14.8,4.8-29.8,9.2-42.5,18.9
			c-7.7,5.9-12.7,13.9-18.9,21c-3.3,3.8-6.2,7.8-8.7,11.9c-1.2,2-1.8,3.7-1.8,3.7c-1.6,4.5-3.7,8.9-5.5,13.3
			c1.9,0.7,3.6,1.9,5.5,2.6c4,1.8,8,3.5,11.5,6.4c4.3,3.5,11.9,6,17.6,6.6c4.1,0.4,6.8,3.6,6.6,8.2c-0.2,3.8-0.1,7.5,0.3,11.2
			c0.9,8.1,1.6,16.3,2.2,24.4c0.6,9.7-3.1,14.1-12.7,15.5c-2.5,0.4-5,1-6.4,3.1c-3.5,5.4-7.3,10.4-13.2,13.4c0,0-0.1,0.1-0.1,0.1
			c-0.7,0.9-1.6,1.7-2.6,2.4c-0.4,0.4-0.8,0.8-1.2,1.1l-0.1-0.2c0,0,0,0,0,0c0,0.1,0.1,0.1,0.1,0.2C29,183.1,30.2,184.5,30.2,184.5z
			 M108.9,119.4c2.9,1.6,6.5,2.5,6.5,6.2c0,1.5-3,4.4-4.4,3.5C107.4,127.1,107.8,123.2,108.9,119.4z M81.2,110
			c0.4,0.2,0.8,0.6,1.3,0.7c10,1.9,10.1,9.6,9.9,17.3c-0.1,3.9,0.2,7.9-2.1,11.1c-1.9,3.3-4,5.8-7.9,5.1c-3.8-0.7-4.1-4.1-4.4-6.8
			c-0.9-8-1.6-16-2.1-24C75.6,109.2,77.7,108.1,81.2,110z"/>
		<path fill="#FC9105" d="M242.2,88.1c-0.9-1.3-1.1-3.1-1.4-4.8c-1.5-7.5-4.1-14.3-7.9-20.7c-1.2-2.1-3.4-4.3-3.4-4.3
			c-4.5-5.4-8.7-10.9-12.3-16.9c-2.5-4-6-7-9.7-9.9c-7.8-6.1-16.7-10.1-25.1-15.1c-9.5-5.6-18.6-12.4-30.7-11.5
			c-1.6,0.1-3.3-0.6-4.8-1.1c-2.8-0.9-5.5-1.7-8.3-2.2l0,0c-4.1-0.8-8.2-1.3-12.3-1.3c-2.2,0.3-2.6,1.9-2.2,4.4c0.5,3.1,1.1,5,1.9,8
			c0,0,0,0,0,0c4.5,0.1,9.1,0.6,13.7,1.5c9.3,1.8,18.7,2.1,27.7,5.9c14.8,6.1,26.1,16.9,37.7,27.3c5.9,5.3,9.8,12.1,14.8,18
			c0,0,1.1,1.4,2.3,3.4c2.3,4.2,4.4,8.7,6,13.5c3.1,8.9,7.5,17.3,8.8,26.9c2.1,15.9-1.6,31-4.8,46.3c-1.6,7.7-5.6,14.5-8.2,21.8
			c0,0-0.6,1.7-1.8,3.7c-2.5,4.1-5.3,8.1-8.7,11.9c-6.2,7.1-11.2,15.1-18.9,21c-12.7,9.8-27.7,14.1-42.5,18.9
			c-7.5,2.4-15.3,2.4-23,3.9c0,0-1.8,0.3-4.1,0.3c-4.8-0.1-9.7-0.6-14.7-1.5c-9.3-1.8-18.7-2.1-27.7-5.9
			c-14.8-6.1-26.1-16.9-37.7-27.3c-5.9-5.3-9.8-12.1-14.8-18c0,0-1.1-1.4-2.3-3.4c0-0.1-0.1-0.1-0.1-0.2c-1.6,1.1-2.1,1-3.5,1.7
			c-2.2,1-3.7,2-4.6,3l0,0c-1.2,2.4-0.7,4,0.7,5.8c0.1,0.1,0.1,0.1,0.1,0.1c0.3,0.4,0.6,0.8,1,1.2c0.1,0.1,0.2,0.2,0.3,0.3l0,0
			c4,4.9,7.8,9.9,11.1,15.4c2.5,4,6,7,9.7,9.9c7.8,6.1,16.7,10.1,25.1,15.1c9.5,5.6,18.6,12.4,30.7,11.5c1.6-0.1,3.3,0.6,4.8,1.1
			c7.2,2.4,14.5,3.6,21.8,3.5c2.4,0,5.4-0.8,5.4-0.8c6.9-1.2,13.8-2,20.8-2.2c4.7-0.1,9-1.7,13.4-3.5c9.2-3.7,17.1-9.4,25.6-14.2
			c9.6-5.4,20-9.9,25.3-20.8c0.7-1.4,2.2-2.5,3.4-3.6c5.7-5,10.3-10.8,14-17.1c1.2-2.1,2-5.1,2-5.1c2.4-6.6,5.1-13,8.5-19.1
			c2.2-4.1,3-8.7,3.7-13.3c1.4-9.8,0.4-19.5,0.5-29.3C247.6,109.4,248.9,98.1,242.2,88.1z"/>
		<path fill="#FC9105" d="M27.9,68.9c2.5-4.1,5.3-8.1,8.7-11.9c6.2-7.1,11.2-15.1,18.9-21C68.2,26.2,83.1,21.8,97.9,17
			c2.8-0.9,5.7-1.5,8.6-1.9c-0.3-2.6-0.3-3.6-0.7-6.2c-0.6-3.7-1.8-5.5-4.3-5.5c-0.1,0-0.1,0-0.2,0c-0.8,0-1.8,0.3-2.9,0.7
			c-6,2.2-12.1,4-18.4,5.4C73,13,66.5,17.3,59.8,21.2c-9.6,5.4-20,9.9-25.3,20.8c-0.7,1.4-2.2,2.5-3.4,3.6c-5.7,5-10.3,10.8-14,17.1
			c-1.2,2.1-2,5.1-2,5.1c-1.8,4.9-3.8,9.7-6,14.4c0,0,0,0,0,0c-0.5,1.1,0.4,1.9,0.4,1.9c0.2,0.1,0.3,0.2,0.5,0.3
			c0.6,0.3,1.4,0.6,2.3,0.7c2.9,0.3,5.3,1.1,7.6,0.6c0.2,0,0.3,0,0.4,0.1l0,0c0.1,0,0.2,0.1,0.3,0.1c1.8-4.5,3.9-8.8,5.5-13.3
			C26.1,72.6,26.7,70.9,27.9,68.9z"/>
		<path fill="#FF0000" d="M169.6,58.1c-2.1-3.6-11.7-6.6-15.3-4.3c-7.2,4.5-9,14-5.9,18.5c3.7,5.4,11.3,7.5,17,4.2
			C171.1,73.2,173.1,64.2,169.6,58.1z"/>
		<path fill="#FF0000" d="M205.2,130.2c2.1-3.7-0.2-13.5-3.9-15.4c-7.5-4-16.6-0.8-19,4.2c-2.8,5.9-0.9,13.5,4.9,16.8
			C192.9,139.1,201.7,136.3,205.2,130.2z"/>
		<path fill="#FF0000" d="M160.6,197.1c4.2,0,11.6-6.9,11.4-11c-0.3-8.5-7.6-14.8-13.1-14.4c-6.5,0.5-12.2,6-12.1,12.6
			C146.8,190.8,153.6,197.1,160.6,197.1z"/>
		<path fill="#FF0000" d="M80.4,191.9c2.1,3.6,11.7,6.6,15.3,4.3c7.2-4.5,9-14,5.9-18.5c-3.7-5.4-11.3-7.5-17-4.2
			C78.9,176.8,76.9,185.8,80.4,191.9z"/>
		<path fill="#FF0000" d="M93.7,70.5c-1.3-6.1-9.5-10.8-16.3-9.3c-4.2,0.9-9.4,8.8-8.5,13.1c1.4,7,9.2,12.4,15.7,11
			C90.9,83.7,95.1,76.9,93.7,70.5z"/>
	</g>
</g>
<g id="Layer_3">
</g>
<g id="Layer_4">
</g>
<g id="Layer_5">
</g>
</svg>
