<?xml version="1.0" encoding="utf-8"?>
<!-- Generator: Adobe Illustrator 21.0.2, SVG Export Plug-In . SVG Version: 6.00 Build 0)  -->
<!DOCTYPE svg PUBLIC "-//W3C//DTD SVG 1.1//EN" "http://www.w3.org/Graphics/SVG/1.1/DTD/svg11.dtd">
<svg version="1.1" xmlns="http://www.w3.org/2000/svg" xmlns:xlink="http://www.w3.org/1999/xlink" x="0px" y="0px"
	 viewBox="0 0 250 250" enable-background="new 0 0 250 250" xml:space="preserve">
<g id="Layer_1">
	<g>
		<path fill="#FDCB02" d="M26.1,72.6c-2.6,7.3-6.5,14.1-8.2,21.8c-3.2,15.3-6.9,30.4-4.8,46.3c1.3,9.6,5.7,18,8.8,26.9
			c1.7,4.8,3.7,9.3,6,13.5c1.2,2,2.3,3.4,2.3,3.4c5,5.9,9,12.7,14.8,18c11.6,10.4,22.8,21.2,37.7,27.3c9,3.7,18.4,4.1,27.7,5.9
			c5,1,9.9,1.4,14.7,1.5c2.3,0,4.1-0.3,4.1-0.3c7.6-1.4,15.5-1.4,23-3.9c14.8-4.8,29.8-9.2,42.5-18.9c7.7-5.9,12.7-13.9,18.9-21
			c3.3-3.8,6.2-7.8,8.7-11.9c1.2-2,1.8-3.7,1.8-3.7c2.6-7.3,6.5-14.1,8.2-21.8c3.2-15.3,6.9-30.4,4.8-46.3c-1.3-9.6-5.7-18-8.8-26.9
			c-1.5-4.3-3.3-8.4-5.4-12.3c-0.2,0.2-0.4,0.3-0.6,0.5c-0.3,0.3-0.6,0.4-1,0.4h-2.6c-0.2-0.7-0.4-0.7-0.4-1.3s2-1.3,3-1.9
			c0.1,0,0.2-0.1,0.3-0.1c-0.8-1.3-1.5-2.1-1.5-2.1c-5-5.9-9-12.7-14.8-18c-11.6-10.4-22.8-21.2-37.7-27.3c-9-3.7-18.4-4.1-27.7-5.9
			c-5-1-9.9-1.4-14.7-1.5c-0.1,0-0.1,0-0.1,0c0.1,0.3,0,0.6-0.2,0.9c-1.7,5.2,0.6,11.4-0.3,16.6c-1.7,9.2-0.1,18.2,0.2,27.3
			c0.5,14.3,0.3,28.5-5.6,41.8c-1.4,3.2-0.8,5.2,2.2,6.4c3.8,1.4,4.1,4,2.7,7.1c-0.9,2-0.9,6.1-3.5,5.5c-3.1-0.7-8.5,0.1-8.7-5.3
			c-0.2-6.4-4.4-6.8-9-6.7c-7.9,0.1-15-2.1-21.4-6.7c-3.9-2.8-8-5.1-12.4-7.2c-11-5.2-22.6-9.7-31.7-18.4c-1.7-1.6-3.3-2.8-5.3-3.8
			c-1.2-0.3-2.4-0.8-3.6-1.4c-0.1,0-0.2-0.1-0.4-0.1l0,0c0,0-0.1,0.1-0.1,0.1C26.7,70.9,26.1,72.6,26.1,72.6z M196.3,82.1
			c2.7-2.6,6-2.5,8.7-3.4c-6.2,3.1-11.9,8.1-19,11C189.5,87.2,193.3,85,196.3,82.1z M181.4,92.4c0.7-0.3,1.3-0.6,2-1
			c-0.5,0.5-1,1-1.5,1.4c-4,3.5-8.5,6-13.4,8C172.2,97,176.8,94.7,181.4,92.4z"/>
		<path fill="#FC9105" d="M242.2,88.1c-0.9-1.3-1.1-3.1-1.4-4.8c-0.6-2.8-1.3-5.6-2.2-8.3l0,0c-1.3-3.9-3-7.7-5-11.3
			c-0.2-0.3-0.4-0.5-0.6-0.6c-0.2-0.1-0.5-0.2-0.8-0.2c0,0-0.1,0-0.1,0c-0.3,0-0.6-0.1-0.9,0c-0.3,0-1.3-0.1-0.7-0.8
			c0.1-0.1,0.2-0.3,0.3-0.4c0.1-0.2,0.1-0.3,0.1-0.5c0,0,0,0,0,0c-0.1-0.7-0.4-1.5-1-2.4c-0.2-0.3-0.4-0.4-0.4-0.4
			c-4.5-5.4-8.7-10.9-12.3-16.9c-2.5-4-6-7-9.7-9.9c-7.8-6.1-16.7-10.1-25.1-15.1c-9.5-5.6-18.6-12.4-30.7-11.5
			c-1.6,0.1-3.3-0.6-4.8-1.1c-6.8-2.3-13.7-3.4-20.6-3.5c-0.3,0-0.5,0-0.8,0c-0.3,0-0.5,0.1-0.8,0.1c-1.3,0.3-2,1.3-2.1,2.5
			c-0.1,0.7,0,1.5,0.2,2.4c0.7,2.8,0.9,5.4,2.1,7.3c0,0,0,0,0,0c0,0,0.1,0,0.1,0c4.8,0.1,9.7,0.6,14.7,1.5
			c9.3,1.8,18.7,2.1,27.7,5.9c14.8,6.1,26.1,16.9,37.7,27.3c5.9,5.3,9.8,12.1,14.8,18c0,0,0.7,0.8,1.5,2.1c1.1-0.4,2.1-1.2,3.4-1.3
			c0.6-0.1,1,0.5,0.8,1.1c-0.5,1.3-1.7,1.9-2.8,2.7c2.1,3.9,3.9,8,5.4,12.3c3.1,8.9,7.5,17.3,8.8,26.9c2.1,15.9-1.6,31-4.8,46.3
			c-1.6,7.7-5.6,14.5-8.2,21.8c0,0-0.6,1.7-1.8,3.7c-2.5,4.1-5.3,8.1-8.7,11.9c-6.2,7.1-11.2,15.1-18.9,21
			c-12.7,9.8-27.7,14.1-42.5,18.9c-7.5,2.4-15.3,2.4-23,3.9c0,0-1.8,0.3-4.1,0.3c-4.8-0.1-9.7-0.6-14.7-1.5
			c-9.3-1.8-18.7-2.1-27.7-5.9c-14.8-6.1-26.1-16.9-37.7-27.3c-5.9-5.3-9.8-12.1-14.8-18c0,0-1.1-1.4-2.3-3.4
			c-2.3-4.2-4.4-8.7-6-13.5c-3.1-8.9-7.5-17.3-8.8-26.9c-2.1-15.9,1.6-31,4.8-46.3c1.6-7.7,5.6-14.5,8.2-21.8c0,0,0.6-1.7,1.8-3.7
			c0,0,0.1-0.1,0.1-0.1l0-0.1c-1.7-0.8-1.9-1.3-3.2-2.2c-2-1.4-3.6-2.2-4.9-2.5l0,0c-2.7,0.1-3.8,1.4-4.7,3.5c0,0.1-0.1,0.2-0.1,0.2
			c-0.2,0.6-0.4,1.2-0.7,1.7c0,0,0,0.1,0,0.1l0,0c-2.2,5.9-4.7,11.7-7.8,17.3c-2.2,4.1-3,8.7-3.7,13.3c-1.4,9.8-0.4,19.5-0.5,29.3
			c-0.1,11-1.4,22.3,5.4,32.3c0.9,1.3,1.1,3.1,1.4,4.8c1.5,7.5,4.1,14.3,7.9,20.7c1.2,2.1,3.4,4.3,3.4,4.3
			c4.5,5.4,8.7,10.9,12.3,16.9c2.5,4,6,7,9.7,9.9c7.8,6.1,16.7,10.1,25.1,15.1c9.5,5.6,18.6,12.4,30.7,11.5c1.6-0.1,3.3,0.6,4.8,1.1
			c7.2,2.4,14.5,3.6,21.8,3.5c2.4,0,5.4-0.8,5.4-0.8c6.9-1.2,13.8-2,20.8-2.2c4.7-0.1,9-1.7,13.4-3.5c9.2-3.7,17.1-9.4,25.6-14.2
			c9.6-5.4,20-9.9,25.3-20.8c0.7-1.4,2.2-2.5,3.4-3.6c5.7-5,10.3-10.8,14-17.1c1.2-2.1,2-5.1,2-5.1c2.4-6.6,5.1-13,8.5-19.1
			c2.2-4.1,3-8.7,3.7-13.3c1.4-9.8,0.4-19.5,0.5-29.3C247.6,109.4,248.9,98.1,242.2,88.1z"/>
		<path fill="#FF0000" d="M205.2,130.2c2.1-3.7-0.2-13.5-3.9-15.4c-7.5-4-16.6-0.8-19,4.2c-2.8,5.9-0.9,13.5,4.9,16.8
			C192.9,139.1,201.7,136.3,205.2,130.2z"/>
		<path fill="#FF0000" d="M160.6,197.1c4.2,0,11.6-6.9,11.4-11c-0.3-8.5-7.6-14.8-13.1-14.4c-6.5,0.5-12.2,6-12.1,12.6
			C146.8,190.8,153.6,197.1,160.6,197.1z"/>
		<path fill="#FF0000" d="M80.4,191.9c2.1,3.6,11.7,6.6,15.3,4.3c7.2-4.5,9-14,5.9-18.5c-3.7-5.4-11.3-7.5-17-4.2
			C78.9,176.8,76.9,185.8,80.4,191.9z"/>
		<path fill="#FF0000" d="M44.8,119.8c-2.1,3.7,0.2,13.5,3.9,15.4c7.5,4,16.6,0.8,19-4.2c2.8-5.9,0.9-13.5-4.9-16.8
			C57.1,110.9,48.3,113.7,44.8,119.8z"/>
		<path fill="#FF0000" d="M168.1,58c-2.3-3.6-11.5-5.7-15.2-3.4c-6,3.8-8.4,13-4.8,18.5c3.5,5.4,11.4,6.9,17,3.3
			C170.3,73.2,171.8,63.8,168.1,58z"/>
	</g>
</g>
<g id="Layer_2">
</g>
<g id="Layer_3">
</g>
<g id="Layer_4">
</g>
<g id="Layer_5">
</g>
</svg>
