<?xml version="1.0" encoding="utf-8"?>
<!-- Generator: Adobe Illustrator 21.0.2, SVG Export Plug-In . SVG Version: 6.00 Build 0)  -->
<!DOCTYPE svg PUBLIC "-//W3C//DTD SVG 1.1//EN" "http://www.w3.org/Graphics/SVG/1.1/DTD/svg11.dtd">
<svg version="1.1" xmlns="http://www.w3.org/2000/svg" xmlns:xlink="http://www.w3.org/1999/xlink" x="0px" y="0px"
	 viewBox="0 0 250 250" enable-background="new 0 0 250 250" xml:space="preserve">
<g id="Layer_1">
</g>
<g id="Layer_2">
	<g>
		<path fill="#FDCB02" d="M30.2,184.5c5,5.9,9,12.7,14.8,18c11.6,10.4,22.8,21.2,37.7,27.3c9,3.7,18.4,4.1,27.7,5.9
			c5,1,9.9,1.4,14.7,1.5c2.3,0,4.1-0.3,4.1-0.3c7.6-1.4,15.5-1.4,23-3.9c14.8-4.8,29.8-9.2,42.5-18.9c7.7-5.9,12.7-13.9,18.9-21
			c3.3-3.8,6.2-7.8,8.7-11.9c1.2-2,1.8-3.7,1.8-3.7c2.6-7.3,6.5-14.1,8.2-21.8c3.2-15.3,6.9-30.4,4.8-46.3c-1.3-9.6-5.7-18-8.8-26.9
			c-1.7-4.8-3.7-9.3-6-13.5c-1.2-2-2.3-3.4-2.3-3.4c-5-5.9-9-12.7-14.8-18c-11.6-10.4-22.8-21.2-37.7-27.3c-9-3.7-18.4-4.1-27.7-5.9
			c-4.6-0.9-9.2-1.4-13.7-1.5c-1,1.5-0.9,4.2-0.9,5.9c0.2,13.6-0.7,27.1,0.2,40.7c0.3,4.4,0.9,9.1-0.2,13.4
			c-2.3,9-1.2,17.8-0.4,26.6c0.2,2.4,0.3,4.7,0.2,7l0,2.5c-0.6,2.9-0.4,3.7-1.4,5.4c-1,1.8-1.9,1.8-3.2,1.2
			c-5.6-3.2-10.2-6-14.8-10.6c-10.1-10.1-20.9-19.5-31-29.6c-6.5-6.5-14.4-11.5-19.4-19.4c-2.2-3.5-6.5-7.7-10.2-9.4
			c-2.8,3.5-5.5,7.1-8.5,10.5c-3.3,3.8-6.2,7.8-8.7,11.9c-1.2,2-1.8,3.7-1.8,3.7c-2.6,7.3-6.5,14.1-8.2,21.8
			c-3.2,15.3-6.9,30.4-4.8,46.3c0.7,5,2.2,9.7,3.9,14.2c0.1-0.1,0.3-0.1,0.4-0.1l0,0c1.5-0.1,3.9,0.2,5.3-0.2
			c4.9-1.7,7.3,0.9,9.3,4.8c2.8,5.5,3.6,10.7,1.7,15c-1,2.5-3,4.6-5.9,6.5c0,0,0,0,0,0c0,0.1,0.1,0.1,0.1,0.2
			C29,183.1,30.2,184.5,30.2,184.5z M50,152.4c2.3-3.2,5.1-4.3,8.3-2.4c3.4,2.1,3.5,5.6,1.8,8.6c-1.6,2.7-4.1,5-7.8,3
			C49.3,160.1,48.3,155.2,50,152.4z"/>
		<path fill="#FC9105" d="M242.2,88.1c-0.9-1.3-1.1-3.1-1.4-4.8c-1.5-7.5-4.1-14.3-7.9-20.7c-1.2-2.1-3.4-4.3-3.4-4.3
			c-4.5-5.4-8.7-10.9-12.3-16.9c-2.5-4-6-7-9.7-9.9c-7.8-6.1-16.7-10.1-25.1-15.1c-9.5-5.6-18.6-12.4-30.7-11.5
			c-1.6,0.1-3.3-0.6-4.8-1.1c-2.8-0.9-5.5-1.7-8.3-2.2l0,0c-4.1-0.8-8.2-1.3-12.3-1.3c-2.2,0.3-2.6,1.9-2.2,4.4c0.5,3.1,1.1,5,1.9,8
			c0,0,0,0,0,0c4.5,0.1,9.1,0.6,13.7,1.5c9.3,1.8,18.7,2.1,27.7,5.9c14.8,6.1,26.1,16.9,37.7,27.3c5.9,5.3,9.8,12.1,14.8,18
			c0,0,1.1,1.4,2.3,3.4c2.3,4.2,4.4,8.7,6,13.5c3.1,8.9,7.5,17.3,8.8,26.9c2.1,15.9-1.6,31-4.8,46.3c-1.6,7.7-5.6,14.5-8.2,21.8
			c0,0-0.6,1.7-1.8,3.7c-2.5,4.1-5.3,8.1-8.7,11.9c-6.2,7.1-11.2,15.1-18.9,21c-12.7,9.8-27.7,14.1-42.5,18.9
			c-7.5,2.4-15.3,2.4-23,3.9c0,0-1.8,0.3-4.1,0.3c-4.8-0.1-9.7-0.6-14.7-1.5c-9.3-1.8-18.7-2.1-27.7-5.9
			c-14.8-6.1-26.1-16.9-37.7-27.3c-5.9-5.3-9.8-12.1-14.8-18c0,0-1.1-1.4-2.3-3.4c0-0.1-0.1-0.1-0.1-0.2c-1.6,1.1-2.1,1-3.5,1.7
			c-2.2,1-3.7,2-4.6,3l0,0c-1.2,2.4-0.7,4,0.7,5.8c0.1,0.1,0.1,0.1,0.1,0.1c0.3,0.4,0.6,0.8,1,1.2c0.1,0.1,0.2,0.2,0.3,0.3l0,0
			c4,4.9,7.8,9.9,11.1,15.4c2.5,4,6,7,9.7,9.9c7.8,6.1,16.7,10.1,25.1,15.1c9.5,5.6,18.6,12.4,30.7,11.5c1.6-0.1,3.3,0.6,4.8,1.1
			c7.2,2.4,14.5,3.6,21.8,3.5c2.4,0,5.4-0.8,5.4-0.8c6.9-1.2,13.8-2,20.8-2.2c4.7-0.1,9-1.7,13.4-3.5c9.2-3.7,17.1-9.4,25.6-14.2
			c9.6-5.4,20-9.9,25.3-20.8c0.7-1.4,2.2-2.5,3.4-3.6c5.7-5,10.3-10.8,14-17.1c1.2-2.1,2-5.1,2-5.1c2.4-6.6,5.1-13,8.5-19.1
			c2.2-4.1,3-8.7,3.7-13.3c1.4-9.8,0.4-19.5,0.5-29.3C247.6,109.4,248.9,98.1,242.2,88.1z"/>
		<path fill="#FC9105" d="M17.9,94.4c1.6-7.7,5.6-14.5,8.2-21.8c0,0,0.6-1.7,1.8-3.7c2.5-4.1,5.3-8.1,8.7-11.9c3-3.4,5.6-7,8.5-10.5
			c0,0,0,0,0,0c-1.8-1.9-1.9-2.3-3.8-4.1c-3.4-3.3-4.4-3.6-6.9-0.1c-0.1,0.3-0.3,0.5-0.5,0.7c0,0,0,0,0,0c0,0,0,0,0,0
			C33,44,32,44.8,31.1,45.6c-5.7,5-10.3,10.8-14,17.1c-1.2,2.1-2,5.1-2,5.1c-2.4,6.6-5.1,13-8.5,19.1c-2.2,4.1-3,8.7-3.7,13.3
			c-1.4,9.8-0.4,19.5-0.5,29.3c-0.1,9.9-1.1,20,3.5,29.2c0.6,1.1,2,1.1,2.1,1.1c0.7-0.1,1.5-0.4,2.3-0.8c2.6-1.4,4.9-2.3,6.5-4
			c0,0,0.1,0,0.1-0.1c-1.7-4.6-3.2-9.2-3.9-14.2C11,124.8,14.7,109.7,17.9,94.4z"/>
		<path fill="#FF0000" d="M169.6,58.1c-2.1-3.6-11.7-6.6-15.3-4.3c-7.2,4.5-9,14-5.9,18.5c3.7,5.4,11.3,7.5,17,4.2
			C171.1,73.2,173.1,64.2,169.6,58.1z"/>
		<path fill="#FF0000" d="M205.2,130.2c2.1-3.7-0.2-13.5-3.9-15.4c-7.5-4-16.6-0.8-19,4.2c-2.8,5.9-0.9,13.5,4.9,16.8
			C192.9,139.1,201.7,136.3,205.2,130.2z"/>
		<path fill="#FF0000" d="M160.6,197.1c4.2,0,11.6-6.9,11.4-11c-0.3-8.5-7.6-14.8-13.1-14.4c-6.5,0.5-12.2,6-12.1,12.6
			C146.8,190.8,153.6,197.1,160.6,197.1z"/>
		<path fill="#FF0000" d="M80.4,191.9c2.1,3.6,11.7,6.6,15.3,4.3c7.2-4.5,9-14,5.9-18.5c-3.7-5.4-11.3-7.5-17-4.2
			C78.9,176.8,76.9,185.8,80.4,191.9z"/>
		<path fill="#FF0000" d="M49,101.3c-2.9,3.2-2.4,12.6,0.8,15.6c5.3,4.8,14.8,4.6,19.1-0.3c4.2-4.8,3.6-12.8-1.3-17.2
			C63,95.2,53.6,96.2,49,101.3z"/>
	</g>
</g>
<g id="Layer_3">
</g>
<g id="Layer_4">
</g>
<g id="Layer_5">
</g>
</svg>
