<?xml version="1.0" encoding="utf-8"?>
<!-- Generator: Adobe Illustrator 21.0.2, SVG Export Plug-In . SVG Version: 6.00 Build 0)  -->
<!DOCTYPE svg PUBLIC "-//W3C//DTD SVG 1.1//EN" "http://www.w3.org/Graphics/SVG/1.1/DTD/svg11.dtd">
<svg version="1.1" id="Layer_1" xmlns="http://www.w3.org/2000/svg" xmlns:xlink="http://www.w3.org/1999/xlink" x="0px" y="0px"
	 viewBox="0 0 250 250" enable-background="new 0 0 250 250" xml:space="preserve">
<g>
	<path fill="#FDCB02" d="M120.9,13.1c-7.6,1.4-15.5,1.4-23,3.9c-14.8,4.8-29.8,9.2-42.5,18.9c-7.7,5.9-12.7,13.9-18.9,21
		c-3.3,3.8-6.2,7.8-8.7,11.9c-1.2,2-1.8,3.7-1.8,3.7c-2.6,7.3-6.5,14.1-8.2,21.8c-3.2,15.3-6.9,30.4-4.8,46.3
		c1.3,9.6,5.7,18,8.8,26.9c1.7,4.8,3.7,9.3,6,13.5c1.2,2,2.3,3.4,2.3,3.4c5,5.9,9,12.7,14.8,18c11.6,10.4,22.8,21.2,37.7,27.3
		c9,3.7,18.4,4.1,27.7,5.9c5,1,9.9,1.4,14.7,1.5c2.3,0,4.1-0.3,4.1-0.3c7.6-1.4,15.5-1.4,23-3.9c14.8-4.8,29.8-9.2,42.5-18.9
		c7.7-5.9,12.7-13.9,18.9-21c3.1-3.6,5.8-7.3,8.2-11.1c-0.8-1.6-3.2-2.9-4.6-3.7c-11.9-6.6-23.1-14.2-35.3-20.2
		c-4-2-8.4-3.8-11.5-6.8c-6.7-6.4-14.8-9.9-22.9-13.6c-2.2-1-4.2-2.1-6.2-3.3l-2.2-1.3c-2.2-2-3-2.2-4-3.9c-1-1.8-0.6-2.6,0.5-3.4
		c5.6-3.2,10.3-5.8,16.6-7.5c13.8-3.6,27.3-8.3,41.2-12c8.8-2.4,17.2-6.7,26.5-7.1c4.1-0.2,10-1.8,13.3-4.1
		c-1.6-4.2-3.4-8.3-4.8-12.6c-1.7-4.8-3.7-9.3-6-13.5c-1.2-2-2.3-3.4-2.3-3.4c-5-5.9-9-12.7-14.8-18c-11.6-10.4-22.8-21.2-37.7-27.3
		c-4.7-1.9-9.5-3-14.3-3.7c0,0.1,0,0.3-0.1,0.4l0,0c-0.7,1.3-2.2,3.3-2.4,4.7c-1,5-4.5,5.9-8.8,5.6c-6.2-0.4-11-2.3-13.9-6
		c-1.6-2.2-2.5-4.9-2.7-8.4c0,0,0,0,0,0c-0.1,0-0.1,0-0.2,0C122.7,12.8,120.9,13.1,120.9,13.1z M129.6,43.7c2.9-1.8,7.6-0.2,9.1,2.6
		c1.6,3.6,1.2,6.6-2.1,8.3c-3.5,1.9-6.6,0.3-8.3-2.7C126.8,49.3,126.1,45.9,129.6,43.7z"/>
	<path fill="#FC9105" d="M225,198.3c2.7-3.1,5.2-6.4,7.3-10c0.9-2-0.3-3.2-2.7-4.1c-2.9-1.1-4.9-1.5-7.9-2.4c0,0,0,0,0,0
		c-2.4,3.8-5.1,7.6-8.2,11.1c-6.2,7.1-11.2,15.1-18.9,21c-12.7,9.8-27.7,14.1-42.5,18.9c-7.5,2.4-15.3,2.4-23,3.9
		c0,0-1.8,0.3-4.1,0.3c-4.8-0.1-9.7-0.6-14.7-1.5c-9.3-1.8-18.7-2.1-27.7-5.9c-14.8-6.1-26.1-16.9-37.7-27.3
		c-5.9-5.3-9.8-12.1-14.8-18c0,0-1.1-1.4-2.3-3.4c-2.3-4.2-4.4-8.7-6-13.5c-3.1-8.9-7.5-17.3-8.8-26.9c-2.1-15.9,1.6-31,4.8-46.3
		c1.6-7.7,5.6-14.5,8.2-21.8c0,0,0.6-1.7,1.8-3.7c2.5-4.1,5.3-8.1,8.7-11.9c6.2-7.1,11.2-15.1,18.9-21C68.2,26.2,83.1,21.8,97.9,17
		c7.5-2.4,15.3-2.4,23-3.9c0,0,1.8-0.3,4.1-0.3c0.1,0,0.1,0,0.2,0c-0.2-1.9,0.2-2.3,0.3-3.9c0.2-2.4,0.1-4.2-0.3-5.5l0,0
		c-1.4-2.3-3.1-2.6-5.3-2.3c-0.1,0-0.2,0.1-0.2,0.1c-0.6,0.1-1.2,0.2-1.8,0.3c0,0-0.1,0-0.1,0l0,0c-6.2,1-12.5,1.7-18.8,1.9
		c-4.7,0.1-9,1.7-13.4,3.5c-9.2,3.7-17.1,9.4-25.6,14.2c-9.6,5.4-20,9.9-25.3,20.8c-0.7,1.4-2.2,2.5-3.4,3.6
		c-5.7,5-10.3,10.8-14,17.1c-1.2,2.1-2,5.1-2,5.1c-2.4,6.6-5.1,13-8.5,19.1c-2.2,4.1-3,8.7-3.7,13.3c-1.4,9.8-0.4,19.5-0.5,29.3
		c-0.1,11-1.4,22.3,5.4,32.3c0.9,1.3,1.1,3.1,1.4,4.8c1.5,7.5,4.1,14.3,7.9,20.7c1.2,2.1,3.4,4.3,3.4,4.3
		c4.5,5.4,8.7,10.9,12.3,16.9c2.5,4,6,7,9.7,9.9c7.8,6.1,16.7,10.1,25.1,15.1c9.5,5.6,18.6,12.4,30.7,11.5c1.6-0.1,3.3,0.6,4.8,1.1
		c7.2,2.4,14.5,3.6,21.8,3.5c2.4,0,5.4-0.8,5.4-0.8c6.9-1.2,13.8-2,20.8-2.2c4.7-0.1,9-1.7,13.4-3.5c9.2-3.7,17.1-9.4,25.6-14.2
		c9.6-5.4,20-9.9,25.3-20.8c0.7-1.4,2.2-2.5,3.4-3.6C221.1,202.5,223.1,200.5,225,198.3L225,198.3z"/>
	<path fill="#FC9105" d="M205,47.6c5.9,5.3,9.8,12.1,14.8,18c0,0,1.1,1.4,2.3,3.4c2.3,4.2,4.4,8.7,6,13.5c1.5,4.3,3.3,8.4,4.8,12.6
		c0,0,0,0,0,0c2.6-0.6,2.9-0.5,5.5-1.2c4.6-1.3,5.3-2,3.5-5.9c-0.1-0.3-0.3-0.5-0.4-0.8c0,0,0,0,0,0c0,0,0,0,0,0
		c-0.4-1.1-0.6-2.4-0.8-3.6c-1.5-7.5-4.1-14.3-7.9-20.7c-1.2-2.1-3.4-4.3-3.4-4.3c-4.5-5.4-8.7-10.9-12.3-16.9c-2.5-4-6-7-9.7-9.9
		c-7.8-6.1-16.7-10.1-25.1-15.1c-8.5-5-16.8-11-27-11.5c-1.3,0-2,1.2-2,1.2c-0.3,0.7-0.4,1.5-0.4,2.4c0,2.9-0.5,5.4,0.2,7.6
		c0,0,0,0.1,0,0.1c4.8,0.8,9.6,1.8,14.3,3.7C182.2,26.4,193.4,37.1,205,47.6z"/>
	<path fill="#FF0000" d="M160.6,197.1c4.2,0,11.6-6.9,11.4-11c-0.3-8.5-7.6-14.8-13.1-14.4c-6.5,0.5-12.2,6-12.1,12.6
		C146.8,190.8,153.6,197.1,160.6,197.1z"/>
	<path fill="#FF0000" d="M80.4,191.9c2.1,3.6,11.7,6.6,15.3,4.3c7.2-4.5,9-14,5.9-18.5c-3.7-5.4-11.3-7.5-17-4.2
		C78.9,176.8,76.9,185.8,80.4,191.9z"/>
	<path fill="#FF0000" d="M44.8,119.8c-2.1,3.7,0.2,13.5,3.9,15.4c7.5,4,16.6,0.8,19-4.2c2.8-5.9,0.9-13.5-4.9-16.8
		C57.1,110.9,48.3,113.7,44.8,119.8z"/>
	<path fill="#FF0000" d="M89.4,52.9c-4.2,0-11.6,6.9-11.4,11c0.3,8.5,7.6,14.8,13.1,14.4c6.5-0.5,12.2-6,12.1-12.6
		C103.2,59.2,96.4,52.9,89.4,52.9z"/>
	<path fill="#FF0000" d="M183.6,71c-1.3-4.1-9.7-8.4-13.9-7.1c-6.8,2.2-11.4,10.5-9.3,16.8c2.1,6.1,9.3,9.5,15.6,7.5
		C181.8,86.2,185.7,77.6,183.6,71z"/>
</g>
</svg>
