<?xml version="1.0" encoding="utf-8"?>
<!-- Generator: Adobe Illustrator 21.0.2, SVG Export Plug-In . SVG Version: 6.00 Build 0)  -->
<!DOCTYPE svg PUBLIC "-//W3C//DTD SVG 1.1//EN" "http://www.w3.org/Graphics/SVG/1.1/DTD/svg11.dtd">
<svg version="1.1" xmlns="http://www.w3.org/2000/svg" xmlns:xlink="http://www.w3.org/1999/xlink" x="0px" y="0px"
	 viewBox="0 0 250 250" enable-background="new 0 0 250 250" xml:space="preserve">
<g id="Layer_1">
</g>
<g id="Layer_2">
</g>
<g id="Layer_3">
</g>
<g id="Layer_4">
	<g>
		<path fill="#FDCB02" d="M223.9,177.4c2.6-7.3,6.5-14.1,8.2-21.8c3.2-15.3,6.9-30.4,4.8-46.3c-1.3-9.6-5.7-18-8.8-26.9
			c-1.7-4.8-3.7-9.3-6-13.5c-1.2-2-2.3-3.4-2.3-3.4c-5-5.9-9-12.7-14.8-18c-11.6-10.4-22.8-21.2-37.7-27.3c-9-3.7-18.4-4.1-27.7-5.9
			c-5-1-9.9-1.4-14.7-1.5c-2.3,0-4.1,0.3-4.1,0.3c-7.6,1.4-15.5,1.4-23,3.9c-14.8,4.8-29.8,9.2-42.5,18.9
			c-7.7,5.9-12.7,13.9-18.9,21c-3.3,3.8-6.2,7.8-8.7,11.9c-1.2,2-1.8,3.7-1.8,3.7c-2.6,7.3-6.5,14.1-8.2,21.8
			c-3.2,15.3-6.9,30.4-4.8,46.3c1.3,9.6,5.7,18,8.8,26.9c1.5,4.5,3.4,8.7,5.6,12.6c1.7,0.1,4.1-1.4,5.5-2.2
			c11.6-7,23.9-12.9,35.1-20.5c3.7-2.5,7.5-5.4,11.6-6.5c8.9-2.5,16-7.8,23.3-13c1.9-1.4,3.9-2.6,5.9-3.6c2.7-1.2,5.6-2.9,8.7-2.9
			c2.1,0,2.8,0.2,3.2,2.4c1.2,6.3,2.4,12.5,1.9,19c-1,14.3-0.9,28.6-1.9,42.9c-0.6,9.1,0.8,18.4-1.9,27.4c-1.2,3.9-1.5,9.9-0.3,13.8
			c2.2,0.2,4.3,0.3,6.4,0.4c2.3,0,4.1-0.3,4.1-0.3c7.6-1.4,15.5-1.4,23-3.9c14.8-4.8,29.8-9.2,42.5-18.9c7.7-5.9,12.7-13.9,18.9-21
			c1.7-2,3.3-4,4.8-6.1c-1.2-1.5-2.3-3.5-1.9-4.3c0.5-1,2.4-1.7,5.7-1.4c0,0,0-0.1,0.1-0.1C223.3,179.1,223.9,177.4,223.9,177.4z"/>
		<path fill="#FC9105" d="M242.2,88.1c-0.9-1.3-1.1-3.1-1.4-4.8c-1.5-7.4-4.1-14.3-7.9-20.7c-1.2-2.1-3.4-4.3-3.4-4.3
			c-4.5-5.4-8.7-10.9-12.3-16.9c-2.5-4-6-7-9.7-9.9c-7.8-6.1-16.7-10.1-25.1-15.1c-9.5-5.6-18.6-12.4-30.7-11.5
			c-1.6,0.1-3.3-0.6-4.8-1.1c-7.2-2.4-14.5-3.6-21.8-3.5c-2.4,0-5.4,0.8-5.4,0.8c-6.9,1.2-13.8,2-20.8,2.2c-4.7,0.1-9,1.7-13.4,3.5
			c-9.2,3.7-17.1,9.4-25.6,14.2c-9.6,5.4-20,9.9-25.3,20.8c-0.7,1.4-2.2,2.5-3.4,3.6c-5.7,5-10.3,10.8-14,17.1c-1.2,2.1-2,5.1-2,5.1
			c-2.4,6.6-5.1,13-8.5,19.1c-2.2,4.1-3,8.7-3.7,13.3c-1.4,9.8-0.4,19.5-0.5,29.3c-0.1,11-1.4,22.3,5.4,32.3
			c0.9,1.3,1.1,3.1,1.4,4.8c0.6,2.8,1.3,5.6,2.2,8.3l0,0c1.3,3.9,3,7.7,5,11.3c1.3,1.7,2.9,1.3,4.9-0.3c2.4-2,3.8-3.5,6-5.6
			c0,0,0,0,0,0c-2.1-4-4-8.2-5.6-12.6c-3.1-8.9-7.5-17.3-8.8-26.9c-2.1-15.9,1.6-31,4.8-46.3c1.6-7.7,5.6-14.5,8.2-21.8
			c0,0,0.6-1.7,1.8-3.7c2.5-4.1,5.3-8.1,8.7-11.9c6.2-7.1,11.2-15.1,18.9-21C68.2,26.2,83.1,21.8,97.9,17c7.5-2.4,15.3-2.4,23-3.9
			c0,0,1.8-0.3,4.1-0.3c4.8,0.1,9.7,0.6,14.7,1.5c9.3,1.8,18.7,2.1,27.7,5.9c14.8,6.1,26.1,16.9,37.7,27.3c5.9,5.3,9.8,12.1,14.8,18
			c0,0,1.1,1.4,2.3,3.4c2.3,4.2,4.4,8.7,6,13.5c3.1,8.9,7.5,17.3,8.8,26.9c2.1,15.9-1.6,31-4.8,46.3c-1.6,7.7-5.6,14.5-8.2,21.8
			c0,0-0.6,1.7-1.8,3.7c0,0,0,0.1-0.1,0.1c0,0,0,0,0,0c0.1,0.1,0.1,0.1,0.1,0.1c1.6,0.8,1.8,1.2,3,2.1c2,1.4,3.6,2.2,4.9,2.5l0,0
			c1.8-0.1,2.9-0.7,3.7-1.8c0.5-0.9,1-2,1.5-3.3c0-0.1,0.1-0.2,0.1-0.3c0,0,0-0.1,0-0.1l0,0c0.3-0.7,0.5-1.4,0.8-2
			c0-0.1,0.1-0.2,0.1-0.4l0,0c2-5.1,4.2-10,6.8-14.9c2.2-4.1,3-8.7,3.7-13.3c1.4-9.8,0.4-19.5,0.5-29.3
			C247.6,109.4,248.9,98.1,242.2,88.1z"/>
		<path fill="#FC9105" d="M194.6,214.1c-12.7,9.8-27.7,14.1-42.5,18.9c-7.5,2.4-15.3,2.4-23,3.9c0,0-1.8,0.3-4.1,0.3
			c-2.1,0-4.3-0.2-6.4-0.4c0,0,0,0,0,0c-0.3,2.6-0.5,3-0.6,5.7c-0.2,3.9,0.6,6.3,3.3,7c1,0.1,2,0.1,3.1,0.1c1.6-0.2,3.2-0.4,4.8-0.5
			v0c0.8-0.2,1.3-0.3,1.3-0.3c6.9-1.2,13.8-2,20.8-2.2c4.7-0.1,9-1.7,13.4-3.5c9.2-3.7,17.1-9.4,25.6-14.2c9.6-5.4,20-9.9,25.3-20.8
			c0.7-1.4,2.2-2.5,3.4-3.6c3.8-3.4,7.1-7.1,10-11c0.5-1.8-1-3.1-3.1-3.9c-2.9-1.2-4.5-1.3-7.5-2.4c0,0-0.1-0.1-0.1-0.1
			c-1.5,2.1-3.1,4.1-4.8,6.1C207.3,200.1,202.3,208.2,194.6,214.1z"/>
		<path fill="#FF0000" d="M169.6,58.1c-2.1-3.6-11.7-6.6-15.3-4.3c-7.2,4.5-9,14-5.9,18.5c3.7,5.4,11.3,7.5,17,4.2
			C171.1,73.2,173.1,64.2,169.6,58.1z"/>
		<path fill="#FF0000" d="M205.2,130.2c2.1-3.7-0.2-13.5-3.9-15.4c-7.5-4-16.6-0.8-19,4.2c-2.8,5.9-0.9,13.5,4.9,16.8
			C192.9,139.1,201.7,136.3,205.2,130.2z"/>
		<path fill="#FF0000" d="M44.8,119.8c-2.1,3.7,0.2,13.5,3.9,15.4c7.5,4,16.6,0.8,19-4.2c2.8-5.9,0.9-13.5-4.9-16.8
			C57.1,110.9,48.3,113.7,44.8,119.8z"/>
		<path fill="#FF0000" d="M89.4,52.9c-4.2,0-11.6,6.9-11.4,11c0.3,8.5,7.6,14.8,13.1,14.4c6.5-0.5,12.2-6,12.1-12.6
			C103.2,59.2,96.4,52.9,89.4,52.9z"/>
		<path fill="#FF0000" d="M157.2,197.8c4.3,0.1,11.1-6.5,11.2-10.9c0.1-7.1-6.3-14.2-12.9-14.2c-6.4,0-12,5.7-12.1,12.3
			C143.4,191.3,150.3,197.7,157.2,197.8z"/>
	</g>
</g>
<g id="Layer_5">
</g>
</svg>
