<?xml version="1.0" encoding="utf-8"?>
<!-- Generator: Adobe Illustrator 21.0.2, SVG Export Plug-In . SVG Version: 6.00 Build 0)  -->
<!DOCTYPE svg PUBLIC "-//W3C//DTD SVG 1.1//EN" "http://www.w3.org/Graphics/SVG/1.1/DTD/svg11.dtd">
<svg version="1.1" xmlns="http://www.w3.org/2000/svg" xmlns:xlink="http://www.w3.org/1999/xlink" x="0px" y="0px"
	 viewBox="0 0 250 250" enable-background="new 0 0 250 250" xml:space="preserve">
<g id="Layer_1">
</g>
<g id="Layer_2">
</g>
<g id="Layer_3">
	<g>
		<path fill="#FDCB02" d="M129.1,236.9c7.6-1.4,15.5-1.4,23-3.9c14.8-4.8,29.8-9.2,42.5-18.9c7.7-5.9,12.7-13.9,18.9-21
			c3.3-3.8,6.2-7.8,8.7-11.9c1.2-2,1.8-3.7,1.8-3.7c2.6-7.3,6.5-14.1,8.2-21.8c3.2-15.3,6.9-30.4,4.8-46.3c-1.3-9.6-5.7-18-8.8-26.9
			c-1.7-4.8-3.7-9.3-6-13.5c-1.2-2-2.3-3.4-2.3-3.4c-5-5.9-9-12.7-14.8-18c-11.6-10.4-22.8-21.2-37.7-27.3c-9-3.7-18.4-4.1-27.7-5.9
			c-5-1-9.9-1.4-14.7-1.5c-2.3,0-4.1,0.3-4.1,0.3c-7.6,1.4-15.5,1.4-23,3.9c-14.8,4.8-29.8,9.2-42.5,18.9
			c-7.7,5.9-12.7,13.9-18.9,21c-3.1,3.6-5.8,7.3-8.2,11.1c0.8,1.6,3.2,2.9,4.6,3.7C44.9,78.4,56.2,86,68.4,91.9
			c4,2,8.4,3.8,11.5,6.8c6.7,6.4,14.8,9.9,22.9,13.6c2.2,1,4.2,2.1,6.2,3.3l2.2,1.3c2.2,2,3,2.2,4,3.9c1,1.8,0.6,2.6-0.5,3.4
			c-5.6,3.2-10.3,5.8-16.6,7.5c-13.8,3.6-27.3,8.3-41.2,12c-8.8,2.4-17.2,6.7-26.5,7.1c-4.1,0.2-10,1.8-13.3,4.1
			c1.6,4.2,3.4,8.3,4.8,12.6c1.7,4.8,3.7,9.3,6,13.5c1.2,2,2.3,3.4,2.3,3.4c5,5.9,9,12.7,14.8,18c11.6,10.4,22.8,21.2,37.7,27.3
			c4.7,1.9,9.5,3,14.3,3.7c0-0.1,0-0.3,0.1-0.4l0,0c0.7-1.3,2.2-3.3,2.4-4.7c1-5,4.5-5.9,8.8-5.6c6.2,0.4,11,2.3,13.9,6
			c1.6,2.2,2.5,4.9,2.7,8.4c0,0,0,0,0,0c0.1,0,0.1,0,0.2,0C127.3,237.2,129.1,236.9,129.1,236.9z M120.4,206.3
			c-2.9,1.8-7.6,0.2-9.1-2.6c-1.6-3.6-1.2-6.6,2.1-8.3c3.5-1.9,6.6-0.3,8.3,2.7C123.2,200.7,123.9,204.1,120.4,206.3z"/>
		<path fill="#FC9105" d="M242.2,88.1c-0.9-1.3-1.1-3.1-1.4-4.8c-1.5-7.4-4.1-14.3-7.9-20.7c-1.2-2.1-3.4-4.3-3.4-4.3
			c-4.5-5.4-8.7-10.9-12.3-16.9c-2.5-4-6-7-9.7-9.9c-7.8-6.1-16.7-10.1-25.1-15.1c-9.5-5.6-18.6-12.4-30.7-11.5
			c-1.6,0.1-3.3-0.6-4.8-1.1c-7.2-2.4-14.5-3.6-21.8-3.5c-2.4,0-5.4,0.8-5.4,0.8c-6.9,1.2-13.8,2-20.8,2.2c-4.7,0.1-9,1.7-13.4,3.5
			c-9.2,3.7-17.1,9.4-25.6,14.2c-9.6,5.4-20,9.9-25.3,20.8c-0.7,1.4-2.2,2.5-3.4,3.6c-2.2,1.9-4.2,4-6.1,6.1l0,0
			c-2.7,3.1-5.2,6.4-7.3,10c-0.9,2,0.3,3.2,2.7,4.1c2.9,1.1,4.9,1.5,7.9,2.4c0,0,0,0,0,0c2.4-3.8,5.1-7.6,8.2-11.1
			c6.2-7.1,11.2-15.1,18.9-21C68.2,26.2,83.1,21.8,97.9,17c7.5-2.4,15.3-2.4,23-3.9c0,0,1.8-0.3,4.1-0.3c4.8,0.1,9.7,0.6,14.7,1.5
			c9.3,1.8,18.7,2.1,27.7,5.9c14.8,6.1,26.1,16.9,37.7,27.3c5.9,5.3,9.8,12.1,14.8,18c0,0,1.1,1.4,2.3,3.4c2.3,4.2,4.4,8.7,6,13.5
			c3.1,8.9,7.5,17.3,8.8,26.9c2.1,15.9-1.6,31-4.8,46.3c-1.6,7.7-5.6,14.5-8.2,21.8c0,0-0.6,1.7-1.8,3.7c-2.5,4.1-5.3,8.1-8.7,11.9
			c-6.2,7.1-11.2,15.1-18.9,21c-12.7,9.8-27.7,14.1-42.5,18.9c-7.5,2.4-15.3,2.4-23,3.9c0,0-1.8,0.3-4.1,0.3c-0.1,0-0.1,0-0.2,0
			c0.2,1.9-0.2,2.3-0.3,3.9c-0.2,2.4-0.1,4.2,0.3,5.5l0,0c1.4,2.3,3.1,2.6,5.3,2.3c0.1,0,0.2-0.1,0.2-0.1c0.6-0.1,1.2-0.2,1.8-0.3
			c0,0,0.1,0,0.1,0l0,0c6.2-1,12.5-1.7,18.8-1.9c4.7-0.1,9-1.7,13.4-3.5c9.2-3.7,17.1-9.4,25.6-14.2c9.6-5.4,20-9.9,25.3-20.8
			c0.7-1.4,2.2-2.5,3.4-3.6c5.7-5,10.3-10.8,14-17.1c1.2-2.1,2-5.1,2-5.1c2.4-6.6,5.1-13,8.5-19.1c2.2-4.1,3-8.7,3.7-13.3
			c1.4-9.8,0.4-19.5,0.5-29.3C247.6,109.4,248.9,98.1,242.2,88.1z"/>
		<path fill="#FC9105" d="M45,202.4c-5.9-5.3-9.8-12.1-14.8-18c0,0-1.1-1.4-2.3-3.4c-2.3-4.2-4.4-8.7-6-13.5
			c-1.5-4.3-3.3-8.4-4.8-12.6c0,0,0,0,0,0c-2.6,0.6-2.9,0.5-5.5,1.2c-4.6,1.3-5.3,2-3.5,5.9c0.1,0.3,0.3,0.5,0.4,0.8c0,0,0,0,0,0
			c0,0,0,0,0,0c0.4,1.1,0.6,2.4,0.8,3.6c1.5,7.4,4.1,14.3,7.9,20.7c1.2,2.1,3.4,4.3,3.4,4.3c4.5,5.4,8.7,10.9,12.3,16.9
			c2.5,4,6,7,9.7,9.9c7.8,6.1,16.7,10.1,25.1,15.1c8.5,5,16.8,11,27,11.5c1.3,0,2-1.2,2-1.2c0.3-0.7,0.4-1.5,0.4-2.4
			c0-2.9,0.5-5.4-0.2-7.6c0,0,0-0.1,0-0.1c-4.8-0.8-9.6-1.8-14.3-3.7C67.8,223.6,56.6,212.9,45,202.4z"/>
		<path fill="#FF0000" d="M169.6,58.1c-2.1-3.6-11.7-6.6-15.3-4.3c-7.2,4.5-9,14-5.9,18.5c3.7,5.4,11.3,7.5,17,4.2
			C171.1,73.2,173.1,64.2,169.6,58.1z"/>
		<path fill="#FF0000" d="M205.2,130.2c2.1-3.7-0.2-13.5-3.9-15.4c-7.5-4-16.6-0.8-19,4.2c-2.8,5.9-0.9,13.5,4.9,16.8
			C192.9,139.1,201.7,136.3,205.2,130.2z"/>
		<path fill="#FF0000" d="M160.6,197.1c4.2,0,11.6-6.9,11.4-11c-0.3-8.5-7.6-14.8-13.1-14.4c-6.5,0.5-12.2,6-12.1,12.6
			C146.8,190.8,153.6,197.1,160.6,197.1z"/>
		<path fill="#FF0000" d="M89.4,52.9c-4.2,0-11.6,6.9-11.4,11c0.3,8.5,7.6,14.8,13.1,14.4c6.5-0.5,12.2-6,12.1-12.6
			C103.2,59.2,96.4,52.9,89.4,52.9z"/>
		<path fill="#FF0000" d="M66.4,179c1.3,4.1,9.7,8.4,13.9,7.1c6.8-2.2,11.4-10.5,9.3-16.8c-2.1-6.1-9.3-9.5-15.6-7.5
			C68.2,163.8,64.3,172.4,66.4,179z"/>
	</g>
</g>
<g id="Layer_4">
</g>
<g id="Layer_5">
</g>
</svg>
